_Griffith_Gothic-Black_WebTT.ufo
<glyph name="exclam" format="1">
  <advance width="1179"/>
  <unicode hex="0021"/>
  <outline>
    <contour>
      <point x="240" y="319" type="qcurve" smooth="yes"/>
      <point x="240" y="469"/>
      <point x="441" y="668"/>
      <point x="592" y="668" type="qcurve" smooth="yes"/>
      <point x="739" y="668"/>
      <point x="940" y="469"/>
      <point x="940" y="319" type="qcurve" smooth="yes"/>
      <point x="940" y="171"/>
      <point x="739" y="-29"/>
      <point x="592" y="-29" type="qcurve" smooth="yes"/>
      <point x="441" y="-29"/>
      <point x="240" y="171"/>
    </contour>
    <contour>
      <point x="408" y="985" type="line"/>
      <point x="209" y="3021" type="line"/>
      <point x="969" y="3021" type="line"/>
      <point x="776" y="985" type="line"/>
    </contour>
  </outline>
</glyph>
<glyph name="numbersign" format="1">
  <advance width="2713.714688"/>
  <unicode hex="0023"/>
  <outline>
    <contour>
      <point x="2161" y="2365" type="line"/>
      <point x="2597" y="2365" type="line"/>
      <point x="2597" y="1853" type="line"/>
      <point x="2077" y="1853" type="line"/>
      <point x="1958" y="1165" type="line"/>
      <point x="2454" y="1165" type="line"/>
      <point x="2454" y="653" type="line"/>
      <point x="1870" y="653" type="line"/>
      <point x="1761" y="0" type="line"/>
      <point x="1452" y="0" type="line"/>
      <point x="1561" y="653" type="line"/>
      <point x="864" y="653" type="line"/>
      <point x="756" y="0" type="line"/>
      <point x="444" y="0" type="line"/>
      <point x="553" y="653" type="line"/>
      <point x="117" y="653" type="line"/>
      <point x="117" y="1165" type="line"/>
      <point x="641" y="1165" type="line"/>
      <point x="756" y="1853" type="line"/>
      <point x="260" y="1853" type="line"/>
      <point x="260" y="2365" type="line"/>
      <point x="844" y="2365" type="line"/>
      <point x="952" y="3021" type="line"/>
      <point x="1262" y="3021" type="line"/>
      <point x="1153" y="2365" type="line"/>
      <point x="1853" y="2365" type="line"/>
      <point x="1958" y="3021" type="line"/>
      <point x="2269" y="3021" type="line"/>
    </contour>
    <contour>
      <point x="940" y="1149" type="line"/>
      <point x="1657" y="1149" type="line"/>
      <point x="1774" y="1870" type="line"/>
      <point x="1061" y="1870" type="line"/>
    </contour>
  </outline>
</glyph>
<glyph name="dollar" format="1">
  <advance width="2466"/>
  <unicode hex="0024"/>
  <outline>
    <contour>
      <point x="1364" y="2566" type="qcurve"/>
      <point x="1364" y="1757" type="line"/>
      <point x="1917" y="1598"/>
      <point x="2357" y="1213"/>
      <point x="2357" y="848" type="qcurve" smooth="yes"/>
      <point x="2357" y="487"/>
      <point x="1837" y="42"/>
      <point x="1405" y="4" type="qcurve"/>
      <point x="1405" y="-399" type="line"/>
      <point x="1061" y="-399" type="line"/>
      <point x="1061" y="8" type="line"/>
      <point x="748" y="33"/>
      <point x="260" y="267"/>
      <point x="72" y="449" type="qcurve"/>
      <point x="399" y="831" type="line"/>
      <point x="549" y="683"/>
      <point x="892" y="482"/>
      <point x="1100" y="453" type="qcurve"/>
      <point x="1100" y="1317" type="line"/>
      <point x="605" y="1454"/>
      <point x="168" y="1845"/>
      <point x="168" y="2202" type="qcurve" smooth="yes"/>
      <point x="168" y="2562"/>
      <point x="667" y="2985"/>
      <point x="1061" y="3017" type="qcurve"/>
      <point x="1061" y="3197" type="line"/>
      <point x="1405" y="3197" type="line"/>
      <point x="1405" y="3011" type="line"/>
      <point x="1668" y="2989"/>
      <point x="2063" y="2813"/>
      <point x="2245" y="2658" type="qcurve"/>
      <point x="1917" y="2277" type="line"/>
      <point x="1785" y="2390"/>
      <point x="1520" y="2542"/>
    </contour>
    <contour>
      <point x="1100" y="2580" type="line"/>
      <point x="909" y="2564"/>
      <point x="713" y="2379"/>
      <point x="713" y="2232" type="qcurve" smooth="yes"/>
      <point x="713" y="2096"/>
      <point x="900" y="1908"/>
      <point x="1100" y="1833" type="qcurve"/>
    </contour>
    <contour>
      <point x="1364" y="1245" type="qcurve"/>
      <point x="1364" y="440" type="line"/>
      <point x="1583" y="459"/>
      <point x="1812" y="652"/>
      <point x="1812" y="817" type="qcurve" smooth="yes"/>
      <point x="1812" y="965"/>
      <point x="1624" y="1158"/>
    </contour>
  </outline>
</glyph>
<glyph name="percent" format="1">
  <advance width="3892"/>
  <unicode hex="0025"/>
  <outline>
    <contour>
      <point x="109" y="2165" type="qcurve" smooth="yes"/>
      <point x="109" y="2580"/>
      <point x="554" y="3049"/>
      <point x="901" y="3049" type="qcurve" smooth="yes"/>
      <point x="1247" y="3049"/>
      <point x="1681" y="2587"/>
      <point x="1681" y="2165" type="qcurve" smooth="yes"/>
      <point x="1681" y="1747"/>
      <point x="1238" y="1284"/>
      <point x="893" y="1284" type="qcurve" smooth="yes"/>
      <point x="546" y="1284"/>
      <point x="109" y="1741"/>
    </contour>
    <contour>
      <point x="580" y="2169" type="qcurve" smooth="yes"/>
      <point x="580" y="1924"/>
      <point x="741" y="1653"/>
      <point x="897" y="1653" type="qcurve" smooth="yes"/>
      <point x="1051" y="1653"/>
      <point x="1217" y="1916"/>
      <point x="1217" y="2161" type="qcurve" smooth="yes"/>
      <point x="1217" y="2408"/>
      <point x="1051" y="2681"/>
      <point x="897" y="2681" type="qcurve" smooth="yes"/>
      <point x="741" y="2681"/>
      <point x="580" y="2416"/>
    </contour>
    <contour>
      <point x="2210" y="856" type="qcurve" smooth="yes"/>
      <point x="2210" y="1272"/>
      <point x="2655" y="1737"/>
      <point x="3002" y="1737" type="qcurve" smooth="yes"/>
      <point x="3348" y="1737"/>
      <point x="3783" y="1278"/>
      <point x="3783" y="856" type="qcurve" smooth="yes"/>
      <point x="3783" y="439"/>
      <point x="3340" y="-29"/>
      <point x="2994" y="-29" type="qcurve" smooth="yes"/>
      <point x="2647" y="-29"/>
      <point x="2210" y="433"/>
    </contour>
    <contour>
      <point x="2681" y="860" type="qcurve" smooth="yes"/>
      <point x="2681" y="613"/>
      <point x="2842" y="340"/>
      <point x="2998" y="340" type="qcurve" smooth="yes"/>
      <point x="3153" y="340"/>
      <point x="3314" y="604"/>
      <point x="3314" y="852" type="qcurve" smooth="yes"/>
      <point x="3314" y="1095"/>
      <point x="3153" y="1368"/>
      <point x="2998" y="1368" type="qcurve" smooth="yes"/>
      <point x="2842" y="1368"/>
      <point x="2681" y="1105"/>
    </contour>
    <contour>
      <point x="1817" y="1569" type="line"/>
      <point x="2609" y="3021" type="line"/>
      <point x="3150" y="3021" type="line"/>
      <point x="2081" y="1452" type="line"/>
      <point x="1288" y="0" type="line"/>
      <point x="741" y="0" type="line"/>
    </contour>
  </outline>
</glyph>
<glyph name="ampersand" format="1">
  <advance width="2995"/>
  <unicode hex="0026"/>
  <outline>
    <contour>
      <point x="2705" y="424" type="qcurve" smooth="yes"/>
      <point x="2783" y="424"/>
      <point x="2891" y="441"/>
      <point x="2953" y="457" type="qcurve"/>
      <point x="2953" y="8" type="line"/>
      <point x="2875" y="-10"/>
      <point x="2745" y="-29"/>
      <point x="2662" y="-29" type="qcurve" smooth="yes"/>
      <point x="2459" y="-29"/>
      <point x="2136" y="89"/>
      <point x="1954" y="256" type="qcurve"/>
      <point x="1766" y="109"/>
      <point x="1348" y="-41"/>
      <point x="1120" y="-41" type="qcurve" smooth="yes"/>
      <point x="645" y="-41"/>
      <point x="84" y="416"/>
      <point x="84" y="825" type="qcurve" smooth="yes"/>
      <point x="84" y="1105"/>
      <point x="381" y="1531"/>
      <point x="760" y="1729" type="qcurve"/>
      <point x="638" y="1913"/>
      <point x="520" y="2222"/>
      <point x="520" y="2378" type="qcurve" smooth="yes"/>
      <point x="520" y="2691"/>
      <point x="956" y="3070"/>
      <point x="1321" y="3070" type="qcurve" smooth="yes"/>
      <point x="1659" y="3070"/>
      <point x="2025" y="2692"/>
      <point x="2025" y="2417" type="qcurve" smooth="yes"/>
      <point x="2025" y="2184"/>
      <point x="1732" y="1828"/>
      <point x="1460" y="1673" type="qcurve"/>
      <point x="1622" y="1449"/>
      <point x="1895" y="1101"/>
      <point x="2005" y="973" type="qcurve"/>
      <point x="2115" y="1133"/>
      <point x="2307" y="1545"/>
      <point x="2382" y="1782" type="qcurve"/>
      <point x="2853" y="1581" type="line"/>
      <point x="2740" y="1294"/>
      <point x="2474" y="807"/>
      <point x="2324" y="616" type="qcurve"/>
      <point x="2439" y="500"/>
      <point x="2612" y="424"/>
    </contour>
    <contour>
      <point x="692" y="920" type="qcurve" smooth="yes"/>
      <point x="692" y="693"/>
      <point x="980" y="403"/>
      <point x="1212" y="403" type="qcurve" smooth="yes"/>
      <point x="1326" y="403"/>
      <point x="1540" y="490"/>
      <point x="1640" y="575" type="qcurve"/>
      <point x="1509" y="728"/>
      <point x="1180" y="1143"/>
      <point x="989" y="1409" type="qcurve"/>
      <point x="827" y="1302"/>
      <point x="692" y="1060"/>
    </contour>
    <contour>
      <point x="1036" y="2417" type="qcurve" smooth="yes"/>
      <point x="1036" y="2310"/>
      <point x="1116" y="2090"/>
      <point x="1217" y="1950" type="qcurve"/>
      <point x="1386" y="2057"/>
      <point x="1544" y="2286"/>
      <point x="1544" y="2408" type="qcurve" smooth="yes"/>
      <point x="1544" y="2543"/>
      <point x="1423" y="2714"/>
      <point x="1300" y="2714" type="qcurve" smooth="yes"/>
      <point x="1166" y="2714"/>
      <point x="1036" y="2542"/>
    </contour>
  </outline>
</glyph>
<glyph name="parenleft" format="1">
  <advance width="1564"/>
  <unicode hex="0028"/>
  <outline>
    <contour>
      <point x="1505" y="3082" type="line"/>
      <point x="1158" y="2673"/>
      <point x="836" y="1821"/>
      <point x="836" y="1341" type="qcurve" smooth="yes"/>
      <point x="836" y="863"/>
      <point x="1158" y="12"/>
      <point x="1505" y="-399" type="qcurve"/>
      <point x="952" y="-399" type="line"/>
      <point x="636" y="-92"/>
      <point x="168" y="767"/>
      <point x="168" y="1341" type="qcurve" smooth="yes"/>
      <point x="168" y="1918"/>
      <point x="636" y="2777"/>
      <point x="952" y="3082" type="qcurve"/>
    </contour>
  </outline>
</glyph>
<glyph name="parenright" format="1">
  <advance width="1564"/>
  <unicode hex="0029"/>
  <outline>
    <contour>
      <point x="63" y="3082" type="qcurve"/>
      <point x="612" y="3082" type="line"/>
      <point x="929" y="2777"/>
      <point x="1397" y="1918"/>
      <point x="1397" y="1341" type="qcurve" smooth="yes"/>
      <point x="1397" y="767"/>
      <point x="929" y="-92"/>
      <point x="612" y="-399" type="qcurve"/>
      <point x="63" y="-399" type="line"/>
      <point x="410" y="12"/>
      <point x="729" y="863"/>
      <point x="729" y="1341" type="qcurve" smooth="yes"/>
      <point x="729" y="1821"/>
      <point x="410" y="2673"/>
    </contour>
  </outline>
</glyph>
<glyph name="comma" format="1">
  <advance width="989.855744"/>
  <unicode hex="002C"/>
  <outline>
    <contour>
      <point x="109" y="-483" type="line"/>
      <point x="227" y="692" type="line"/>
      <point x="897" y="692" type="line"/>
      <point x="457" y="-483" type="line"/>
    </contour>
  </outline>
</glyph>
<glyph name="zero" format="1">
  <advance width="2600"/>
  <unicode hex="0030"/>
  <outline>
    <contour>
      <point x="1300" y="3070" type="qcurve" smooth="yes"/>
      <point x="1817" y="3070"/>
      <point x="2445" y="2329"/>
      <point x="2445" y="1645" type="qcurve" smooth="yes"/>
      <point x="2445" y="1376" type="line" smooth="yes"/>
      <point x="2445" y="690"/>
      <point x="1817" y="-51"/>
      <point x="1300" y="-51" type="qcurve" smooth="yes"/>
      <point x="784" y="-51"/>
      <point x="156" y="690"/>
      <point x="156" y="1376" type="qcurve" smooth="yes"/>
      <point x="156" y="1645" type="line" smooth="yes"/>
      <point x="156" y="2329"/>
      <point x="784" y="3070"/>
    </contour>
    <contour>
      <point x="840" y="1300" type="line" smooth="yes"/>
      <point x="840" y="912"/>
      <point x="1062" y="457"/>
      <point x="1300" y="457" type="qcurve" smooth="yes"/>
      <point x="1542" y="457"/>
      <point x="1765" y="908"/>
      <point x="1765" y="1296" type="qcurve" smooth="yes"/>
      <point x="1765" y="1720" type="line" smooth="yes"/>
      <point x="1765" y="2109"/>
      <point x="1542" y="2562"/>
      <point x="1300" y="2562" type="qcurve" smooth="yes"/>
      <point x="1062" y="2562"/>
      <point x="840" y="2110"/>
      <point x="840" y="1724" type="qcurve" smooth="yes"/>
    </contour>
  </outline>
</glyph>
<glyph name="one" format="1">
  <advance width="1900.019712"/>
  <unicode hex="0031"/>
  <outline>
    <contour>
      <point x="1329" y="403" type="line"/>
      <point x="1829" y="403" type="line"/>
      <point x="1829" y="0" type="line"/>
      <point x="172" y="0" type="line"/>
      <point x="172" y="403" type="line"/>
      <point x="676" y="403" type="line"/>
      <point x="676" y="2617" type="line"/>
      <point x="121" y="2617" type="line"/>
      <point x="121" y="3021" type="line"/>
      <point x="1329" y="3021" type="line"/>
    </contour>
  </outline>
</glyph>
<glyph name="two" format="1">
  <advance width="2378"/>
  <unicode hex="0032"/>
  <outline>
    <contour>
      <point x="831" y="477" type="qcurve"/>
      <point x="2222" y="477" type="line"/>
      <point x="2222" y="0" type="line"/>
      <point x="160" y="0" type="line"/>
      <point x="160" y="395" type="line"/>
      <point x="270" y="698"/>
      <point x="700" y="1200"/>
      <point x="1053" y="1473" type="qcurve" smooth="yes"/>
      <point x="1309" y="1667"/>
      <point x="1561" y="1976"/>
      <point x="1561" y="2173" type="qcurve" smooth="yes"/>
      <point x="1561" y="2361"/>
      <point x="1359" y="2585"/>
      <point x="1178" y="2585" type="qcurve" smooth="yes"/>
      <point x="1013" y="2585"/>
      <point x="750" y="2353"/>
      <point x="612" y="2068" type="qcurve"/>
      <point x="117" y="2302" type="line"/>
      <point x="289" y="2684"/>
      <point x="793" y="3070"/>
      <point x="1204" y="3070" type="qcurve" smooth="yes"/>
      <point x="1704" y="3070"/>
      <point x="2185" y="2573"/>
      <point x="2185" y="2185" type="qcurve" smooth="yes"/>
      <point x="2185" y="1829"/>
      <point x="1834" y="1388"/>
      <point x="1468" y="1128" type="qcurve" smooth="yes"/>
      <point x="1196" y="934"/>
      <point x="897" y="641"/>
    </contour>
  </outline>
</glyph>
<glyph name="three" format="1">
  <advance width="2294"/>
  <unicode hex="0033"/>
  <outline>
    <contour>
      <point x="1389" y="1720" type="qcurve"/>
      <point x="1389" y="1702" type="line"/>
      <point x="1745" y="1716"/>
      <point x="2193" y="1396"/>
      <point x="2193" y="1049" type="qcurve" smooth="yes"/>
      <point x="2193" y="532"/>
      <point x="1092" y="-31"/>
      <point x="88" y="-25" type="qcurve"/>
      <point x="88" y="436" type="line"/>
      <point x="829" y="445"/>
      <point x="1540" y="782"/>
      <point x="1540" y="1044" type="qcurve" smooth="yes"/>
      <point x="1540" y="1223"/>
      <point x="1329" y="1389"/>
      <point x="1153" y="1389" type="qcurve" smooth="yes"/>
      <point x="1045" y="1389"/>
      <point x="844" y="1352"/>
      <point x="737" y="1317" type="qcurve"/>
      <point x="588" y="1698" type="line"/>
      <point x="1060" y="1877"/>
      <point x="1401" y="2131"/>
      <point x="1401" y="2314" type="qcurve" smooth="yes"/>
      <point x="1401" y="2447"/>
      <point x="1235" y="2601"/>
      <point x="1090" y="2601" type="qcurve" smooth="yes"/>
      <point x="943" y="2601"/>
      <point x="634" y="2442"/>
      <point x="453" y="2257" type="qcurve"/>
      <point x="113" y="2574" type="line"/>
      <point x="348" y="2819"/>
      <point x="852" y="3070"/>
      <point x="1178" y="3070" type="qcurve" smooth="yes"/>
      <point x="1592" y="3070"/>
      <point x="2025" y="2707"/>
      <point x="2025" y="2429" type="qcurve" smooth="yes"/>
      <point x="2025" y="2175"/>
      <point x="1685" y="1840"/>
    </contour>
  </outline>
</glyph>
<glyph name="six" format="1">
  <advance width="2512"/>
  <unicode hex="0036"/>
  <outline>
    <contour>
      <point x="813" y="1677" type="line"/>
      <point x="941" y="1803"/>
      <point x="1266" y="1958"/>
      <point x="1509" y="1958" type="qcurve" smooth="yes"/>
      <point x="1885" y="1958"/>
      <point x="2404" y="1468"/>
      <point x="2404" y="997" type="qcurve" smooth="yes"/>
      <point x="2404" y="513"/>
      <point x="1784" y="-51"/>
      <point x="1262" y="-51" type="qcurve" smooth="yes"/>
      <point x="739" y="-51"/>
      <point x="147" y="508"/>
      <point x="147" y="1085" type="qcurve" smooth="yes"/>
      <point x="147" y="1587"/>
      <point x="674" y="2601"/>
      <point x="1137" y="3021" type="qcurve"/>
      <point x="1929" y="3021" type="line"/>
      <point x="1463" y="2682"/>
      <point x="873" y="1969"/>
      <point x="788" y="1677" type="qcurve"/>
    </contour>
    <contour>
      <point x="784" y="956" type="qcurve" smooth="yes"/>
      <point x="784" y="712"/>
      <point x="1039" y="389"/>
      <point x="1272" y="389" type="qcurve" smooth="yes"/>
      <point x="1506" y="389"/>
      <point x="1761" y="713"/>
      <point x="1761" y="961" type="qcurve" smooth="yes"/>
      <point x="1761" y="1205"/>
      <point x="1521" y="1522"/>
      <point x="1284" y="1522" type="qcurve" smooth="yes"/>
      <point x="1046" y="1522"/>
      <point x="784" y="1192"/>
    </contour>
  </outline>
</glyph>
<glyph name="seven" format="1">
  <advance width="2286"/>
  <unicode hex="0037"/>
  <outline>
    <contour>
      <point x="80" y="3021" type="line"/>
      <point x="2218" y="3021" type="line"/>
      <point x="2218" y="2646" type="line"/>
      <point x="1844" y="2132"/>
      <point x="1209" y="702"/>
      <point x="1065" y="0" type="qcurve"/>
      <point x="381" y="0" type="line"/>
      <point x="535" y="645"/>
      <point x="1147" y="1981"/>
      <point x="1509" y="2501" type="qcurve"/>
      <point x="80" y="2501" type="line"/>
    </contour>
  </outline>
</glyph>
<glyph name="eight" format="1">
  <advance width="2533"/>
  <unicode hex="0038"/>
  <outline>
    <contour>
      <point x="1825" y="1624" type="qcurve"/>
      <point x="1825" y="1597" type="line"/>
      <point x="2025" y="1544"/>
      <point x="2394" y="1176"/>
      <point x="2394" y="836" type="qcurve" smooth="yes"/>
      <point x="2394" y="400"/>
      <point x="1723" y="-51"/>
      <point x="1262" y="-51" type="qcurve" smooth="yes"/>
      <point x="805" y="-51"/>
      <point x="139" y="394"/>
      <point x="139" y="825" type="qcurve" smooth="yes"/>
      <point x="139" y="1168"/>
      <point x="505" y="1544"/>
      <point x="709" y="1597" type="qcurve"/>
      <point x="709" y="1624" type="line"/>
      <point x="533" y="1679"/>
      <point x="223" y="1989"/>
      <point x="223" y="2273" type="qcurve" smooth="yes"/>
      <point x="223" y="2637"/>
      <point x="812" y="3070"/>
      <point x="1262" y="3070" type="qcurve" smooth="yes"/>
      <point x="1719" y="3070"/>
      <point x="2310" y="2645"/>
      <point x="2310" y="2281" type="qcurve" smooth="yes"/>
      <point x="2310" y="1997"/>
      <point x="1997" y="1682"/>
    </contour>
    <contour>
      <point x="776" y="889" type="qcurve" smooth="yes"/>
      <point x="776" y="661"/>
      <point x="1040" y="389"/>
      <point x="1262" y="389" type="qcurve" smooth="yes"/>
      <point x="1485" y="389"/>
      <point x="1757" y="653"/>
      <point x="1757" y="881" type="qcurve" smooth="yes"/>
      <point x="1757" y="1119"/>
      <point x="1482" y="1397"/>
      <point x="1262" y="1397" type="qcurve" smooth="yes"/>
      <point x="1046" y="1397"/>
      <point x="776" y="1124"/>
    </contour>
    <contour>
      <point x="848" y="2218" type="qcurve" smooth="yes"/>
      <point x="848" y="2027"/>
      <point x="1081" y="1786"/>
      <point x="1262" y="1786" type="qcurve" smooth="yes"/>
      <point x="1446" y="1786"/>
      <point x="1686" y="2010"/>
      <point x="1686" y="2210" type="qcurve" smooth="yes"/>
      <point x="1686" y="2401"/>
      <point x="1459" y="2630"/>
      <point x="1262" y="2630" type="qcurve" smooth="yes"/>
      <point x="1067" y="2630"/>
      <point x="848" y="2397"/>
    </contour>
  </outline>
</glyph>
<glyph name="nine" format="1">
  <advance width="2512"/>
  <unicode hex="0039"/>
  <outline>
    <contour>
      <point x="109" y="2021" type="qcurve" smooth="yes"/>
      <point x="109" y="2507"/>
      <point x="727" y="3070"/>
      <point x="1249" y="3070" type="qcurve" smooth="yes"/>
      <point x="1772" y="3070"/>
      <point x="2365" y="2513"/>
      <point x="2365" y="1933" type="qcurve" smooth="yes"/>
      <point x="2365" y="1432"/>
      <point x="1839" y="419"/>
      <point x="1376" y="0" type="qcurve"/>
      <point x="584" y="0" type="line"/>
      <point x="1050" y="338"/>
      <point x="1639" y="1051"/>
      <point x="1724" y="1341" type="qcurve"/>
      <point x="1698" y="1341" type="line"/>
      <point x="1569" y="1216"/>
      <point x="1246" y="1061"/>
      <point x="1001" y="1061" type="qcurve" smooth="yes"/>
      <point x="627" y="1061"/>
      <point x="109" y="1552"/>
    </contour>
    <contour>
      <point x="752" y="2060" type="qcurve" smooth="yes"/>
      <point x="752" y="1816"/>
      <point x="990" y="1497"/>
      <point x="1229" y="1497" type="qcurve" smooth="yes"/>
      <point x="1467" y="1497"/>
      <point x="1729" y="1829"/>
      <point x="1729" y="2064" type="qcurve" smooth="yes"/>
      <point x="1729" y="2307"/>
      <point x="1473" y="2630"/>
      <point x="1241" y="2630" type="qcurve" smooth="yes"/>
      <point x="1007" y="2630"/>
      <point x="752" y="2306"/>
    </contour>
  </outline>
</glyph>
<glyph name="semicolon" format="1">
  <advance width="1044"/>
  <unicode hex="003B"/>
  <outline>
    <contour>
      <point x="172" y="1896" type="qcurve" smooth="yes"/>
      <point x="172" y="2049"/>
      <point x="381" y="2257"/>
      <point x="537" y="2257" type="qcurve" smooth="yes"/>
      <point x="694" y="2257"/>
      <point x="901" y="2049"/>
      <point x="901" y="1896" type="qcurve" smooth="yes"/>
      <point x="901" y="1739"/>
      <point x="694" y="1532"/>
      <point x="537" y="1532" type="qcurve" smooth="yes"/>
      <point x="381" y="1532"/>
      <point x="172" y="1739"/>
    </contour>
    <contour>
      <point x="109" y="-483" type="line"/>
      <point x="227" y="692" type="line"/>
      <point x="897" y="692" type="line"/>
      <point x="457" y="-483" type="line"/>
    </contour>
  </outline>
</glyph>
<glyph name="equal" format="1">
  <advance width="2516.5824"/>
  <unicode hex="003D"/>
  <outline>
    <contour>
      <point x="227" y="1212" type="line"/>
      <point x="2290" y="1212" type="line"/>
      <point x="2290" y="680" type="line"/>
      <point x="227" y="680" type="line"/>
    </contour>
    <contour>
      <point x="227" y="2298" type="line"/>
      <point x="2290" y="2298" type="line"/>
      <point x="2290" y="1765" type="line"/>
      <point x="227" y="1765" type="line"/>
    </contour>
  </outline>
</glyph>
<glyph name="greater" format="1">
  <advance width="2516.5824"/>
  <unicode hex="003E"/>
  <outline>
    <contour>
      <point x="197" y="2662" type="line"/>
      <point x="2345" y="1741" type="line"/>
      <point x="2345" y="1237" type="line"/>
      <point x="197" y="315" type="line"/>
      <point x="197" y="872" type="line"/>
      <point x="1741" y="1489" type="line"/>
      <point x="197" y="2105" type="line"/>
    </contour>
  </outline>
</glyph>
<glyph name="question" format="1">
  <advance width="2085"/>
  <unicode hex="003F"/>
  <outline>
    <contour>
      <point x="51" y="2341" type="line"/>
      <point x="192" y="2691"/>
      <point x="649" y="3070"/>
      <point x="1053" y="3070" type="qcurve" smooth="yes"/>
      <point x="1485" y="3070"/>
      <point x="1958" y="2640"/>
      <point x="1958" y="2298" type="qcurve" smooth="yes"/>
      <point x="1958" y="2020"/>
      <point x="1726" y="1686"/>
      <point x="1485" y="1513" type="qcurve" smooth="yes"/>
      <point x="1306" y="1388"/>
      <point x="1148" y="1167"/>
      <point x="1133" y="985" type="qcurve"/>
      <point x="737" y="985" type="line"/>
      <point x="710" y="1298"/>
      <point x="851" y="1624"/>
      <point x="1061" y="1800" type="qcurve" smooth="yes"/>
      <point x="1201" y="1918"/>
      <point x="1325" y="2138"/>
      <point x="1325" y="2269" type="qcurve" smooth="yes"/>
      <point x="1325" y="2407"/>
      <point x="1171" y="2585"/>
      <point x="1024" y="2585" type="qcurve" smooth="yes"/>
      <point x="873" y="2585"/>
      <point x="649" y="2382"/>
      <point x="532" y="2122" type="qcurve"/>
    </contour>
    <contour>
      <point x="584" y="319" type="qcurve" smooth="yes"/>
      <point x="584" y="469"/>
      <point x="784" y="668"/>
      <point x="932" y="668" type="qcurve" smooth="yes"/>
      <point x="1082" y="668"/>
      <point x="1284" y="469"/>
      <point x="1284" y="319" type="qcurve" smooth="yes"/>
      <point x="1284" y="171"/>
      <point x="1082" y="-29"/>
      <point x="932" y="-29" type="qcurve" smooth="yes"/>
      <point x="784" y="-29"/>
      <point x="584" y="171"/>
    </contour>
  </outline>
</glyph>
<glyph name="B" format="1">
  <advance width="2621"/>
  <unicode hex="0042"/>
  <outline>
    <contour>
      <point x="1901" y="1614" type="qcurve"/>
      <point x="1901" y="1597" type="line"/>
      <point x="2188" y="1510"/>
      <point x="2521" y="1158"/>
      <point x="2521" y="840" type="qcurve" smooth="yes"/>
      <point x="2521" y="435"/>
      <point x="1915" y="0"/>
      <point x="1405" y="0" type="qcurve" smooth="yes"/>
      <point x="244" y="0" type="line"/>
      <point x="244" y="3021" type="line"/>
      <point x="1409" y="3021" type="line" smooth="yes"/>
      <point x="1875" y="3021"/>
      <point x="2425" y="2633"/>
      <point x="2425" y="2269" type="qcurve" smooth="yes"/>
      <point x="2425" y="1988"/>
      <point x="2098" y="1684"/>
    </contour>
    <contour>
      <point x="889" y="473" type="line"/>
      <point x="1284" y="473" type="line" smooth="yes"/>
      <point x="1547" y="473"/>
      <point x="1874" y="673"/>
      <point x="1874" y="913" type="qcurve" smooth="yes"/>
      <point x="1874" y="1155"/>
      <point x="1565" y="1372"/>
      <point x="1284" y="1372" type="qcurve" smooth="yes"/>
      <point x="889" y="1372" type="line"/>
    </contour>
    <contour>
      <point x="889" y="1800" type="line"/>
      <point x="1305" y="1800" type="line" smooth="yes"/>
      <point x="1523" y="1800"/>
      <point x="1778" y="1990"/>
      <point x="1778" y="2181" type="qcurve" smooth="yes"/>
      <point x="1778" y="2360"/>
      <point x="1531" y="2546"/>
      <point x="1313" y="2546" type="qcurve" smooth="yes"/>
      <point x="889" y="2546" type="line"/>
    </contour>
  </outline>
</glyph>
<glyph name="E" format="1">
  <advance width="2361.393152"/>
  <unicode hex="0045"/>
  <outline>
    <contour>
      <point x="905" y="520" type="line"/>
      <point x="2241" y="520" type="line"/>
      <point x="2241" y="0" type="line"/>
      <point x="244" y="0" type="line"/>
      <point x="244" y="3021" type="line"/>
      <point x="2189" y="3021" type="line"/>
      <point x="2189" y="2501" type="line"/>
      <point x="905" y="2501" type="line"/>
      <point x="905" y="1804" type="line"/>
      <point x="1866" y="1804" type="line"/>
      <point x="1866" y="1313" type="line"/>
      <point x="905" y="1313" type="line"/>
    </contour>
  </outline>
</glyph>
<glyph name="F" format="1">
  <advance width="2239.758336"/>
  <unicode hex="0046"/>
  <outline>
    <contour>
      <point x="244" y="3021" type="line"/>
      <point x="2157" y="3021" type="line"/>
      <point x="2157" y="2501" type="line"/>
      <point x="913" y="2501" type="line"/>
      <point x="913" y="1729" type="line"/>
      <point x="1808" y="1729" type="line"/>
      <point x="1808" y="1225" type="line"/>
      <point x="913" y="1225" type="line"/>
      <point x="913" y="0" type="line"/>
      <point x="244" y="0" type="line"/>
    </contour>
  </outline>
</glyph>
<glyph name="G" format="1">
  <advance width="2726"/>
  <unicode hex="0047"/>
  <outline>
    <contour>
      <point x="1368" y="1460" type="line"/>
      <point x="2537" y="1460" type="line"/>
      <point x="2537" y="-8" type="line"/>
      <point x="2281" y="-8" type="line"/>
      <point x="2198" y="592" type="line"/>
      <point x="2177" y="592" type="line"/>
      <point x="2058" y="291"/>
      <point x="1629" y="-51"/>
      <point x="1300" y="-51" type="qcurve" smooth="yes"/>
      <point x="778" y="-51"/>
      <point x="164" y="704"/>
      <point x="164" y="1409" type="qcurve" smooth="yes"/>
      <point x="164" y="1610" type="line" smooth="yes"/>
      <point x="164" y="2311"/>
      <point x="815" y="3070"/>
      <point x="1350" y="3070" type="qcurve" smooth="yes"/>
      <point x="1866" y="3070"/>
      <point x="2378" y="2535"/>
      <point x="2462" y="2118" type="qcurve"/>
      <point x="1821" y="1962" type="line"/>
      <point x="1770" y="2257"/>
      <point x="1551" y="2562"/>
      <point x="1350" y="2562" type="qcurve" smooth="yes"/>
      <point x="1101" y="2562"/>
      <point x="856" y="2102"/>
      <point x="856" y="1694" type="qcurve" smooth="yes"/>
      <point x="856" y="1329" type="line" smooth="yes"/>
      <point x="856" y="910"/>
      <point x="1119" y="457"/>
      <point x="1364" y="457" type="qcurve" smooth="yes"/>
      <point x="1589" y="457"/>
      <point x="1832" y="824"/>
      <point x="1853" y="1200" type="qcurve"/>
      <point x="1368" y="1200" type="line"/>
    </contour>
  </outline>
</glyph>
<glyph name="H" format="1">
  <advance width="2717.908992"/>
  <unicode hex="0048"/>
  <outline>
    <contour>
      <point x="1804" y="3021" type="line"/>
      <point x="2474" y="3021" type="line"/>
      <point x="2474" y="0" type="line"/>
      <point x="1804" y="0" type="line"/>
      <point x="1804" y="1272" type="line"/>
      <point x="913" y="1272" type="line"/>
      <point x="913" y="0" type="line"/>
      <point x="244" y="0" type="line"/>
      <point x="244" y="3021" type="line"/>
      <point x="913" y="3021" type="line"/>
      <point x="913" y="1849" type="line"/>
      <point x="1804" y="1849" type="line"/>
    </contour>
  </outline>
</glyph>
<glyph name="I" format="1">
  <advance width="1824.52224"/>
  <unicode hex="0049"/>
  <outline>
    <contour>
      <point x="1249" y="256" type="line"/>
      <point x="1661" y="256" type="line"/>
      <point x="1661" y="0" type="line"/>
      <point x="168" y="0" type="line"/>
      <point x="168" y="256" type="line"/>
      <point x="580" y="256" type="line"/>
      <point x="580" y="2765" type="line"/>
      <point x="168" y="2765" type="line"/>
      <point x="168" y="3021" type="line"/>
      <point x="1661" y="3021" type="line"/>
      <point x="1661" y="2765" type="line"/>
      <point x="1249" y="2765" type="line"/>
    </contour>
  </outline>
</glyph>
<glyph name="J" format="1">
  <advance width="2265"/>
  <unicode hex="004A"/>
  <outline>
    <contour>
      <point x="1376" y="3021" type="line"/>
      <point x="2046" y="3021" type="line"/>
      <point x="2046" y="956" type="line" smooth="yes"/>
      <point x="2046" y="452"/>
      <point x="1523" y="-51"/>
      <point x="1032" y="-51" type="qcurve" smooth="yes"/>
      <point x="563" y="-51"/>
      <point x="85" y="414"/>
      <point x="63" y="901" type="qcurve"/>
      <point x="688" y="1016" type="line"/>
      <point x="697" y="718"/>
      <point x="881" y="477"/>
      <point x="1044" y="477" type="qcurve" smooth="yes"/>
      <point x="1200" y="477"/>
      <point x="1376" y="693"/>
      <point x="1376" y="932" type="qcurve" smooth="yes"/>
    </contour>
  </outline>
</glyph>
<glyph name="K" format="1">
  <advance width="2726.2976"/>
  <unicode hex="004B"/>
  <outline>
    <contour>
      <point x="2669" y="3021" type="line"/>
      <point x="1690" y="1653" type="line"/>
      <point x="2738" y="0" type="line"/>
      <point x="2001" y="0" type="line"/>
      <point x="989" y="1624" type="line"/>
      <point x="989" y="1632" type="line"/>
      <point x="1937" y="3021" type="line"/>
    </contour>
    <contour>
      <point x="244" y="3021" type="line"/>
      <point x="913" y="3021" type="line"/>
      <point x="913" y="0" type="line"/>
      <point x="244" y="0" type="line"/>
    </contour>
  </outline>
</glyph>
<glyph name="L" format="1">
  <advance width="2214.592512"/>
  <unicode hex="004C"/>
  <outline>
    <contour>
      <point x="913" y="557" type="line"/>
      <point x="2144" y="557" type="line"/>
      <point x="2144" y="0" type="line"/>
      <point x="244" y="0" type="line"/>
      <point x="244" y="3021" type="line"/>
      <point x="913" y="3021" type="line"/>
    </contour>
  </outline>
</glyph>
<glyph name="M" format="1">
  <advance width="3716.153344"/>
  <unicode hex="004D"/>
  <outline>
    <contour>
      <point x="2478" y="3021" type="line"/>
      <point x="3473" y="3021" type="line"/>
      <point x="3473" y="0" type="line"/>
      <point x="2857" y="0" type="line"/>
      <point x="2857" y="2286" type="line"/>
      <point x="2826" y="2286" type="line"/>
      <point x="2177" y="0" type="line"/>
      <point x="1522" y="0" type="line"/>
      <point x="872" y="2286" type="line"/>
      <point x="844" y="2286" type="line"/>
      <point x="844" y="0" type="line"/>
      <point x="244" y="0" type="line"/>
      <point x="244" y="3021" type="line"/>
      <point x="1253" y="3021" type="line"/>
      <point x="1858" y="885" type="line"/>
      <point x="1880" y="885" type="line"/>
    </contour>
  </outline>
</glyph>
<glyph name="N" format="1">
  <advance width="2747.26912"/>
  <unicode hex="004E"/>
  <outline>
    <contour>
      <point x="1884" y="3021" type="line"/>
      <point x="2505" y="3021" type="line"/>
      <point x="2505" y="0" type="line"/>
      <point x="1888" y="0" type="line"/>
      <point x="885" y="1968" type="line"/>
      <point x="864" y="1968" type="line"/>
      <point x="864" y="0" type="line"/>
      <point x="244" y="0" type="line"/>
      <point x="244" y="3021" type="line"/>
      <point x="924" y="3021" type="line"/>
      <point x="1862" y="1165" type="line"/>
      <point x="1884" y="1165" type="line"/>
    </contour>
  </outline>
</glyph>
<glyph name="P" format="1">
  <advance width="2483"/>
  <unicode hex="0050"/>
  <outline>
    <contour>
      <point x="244" y="3021" type="line"/>
      <point x="1292" y="3021" type="line" smooth="yes"/>
      <point x="1792" y="3021"/>
      <point x="2390" y="2567"/>
      <point x="2390" y="2114" type="qcurve" smooth="yes"/>
      <point x="2390" y="1638"/>
      <point x="1797" y="1157"/>
      <point x="1257" y="1157" type="qcurve" smooth="yes"/>
      <point x="913" y="1157" type="line"/>
      <point x="913" y="0" type="line"/>
      <point x="244" y="0" type="line"/>
    </contour>
    <contour>
      <point x="889" y="1640" type="line"/>
      <point x="1229" y="1640" type="line" smooth="yes"/>
      <point x="1470" y="1640"/>
      <point x="1720" y="1880"/>
      <point x="1720" y="2101" type="qcurve" smooth="yes"/>
      <point x="1720" y="2320"/>
      <point x="1465" y="2546"/>
      <point x="1221" y="2546" type="qcurve" smooth="yes"/>
      <point x="889" y="2546" type="line"/>
    </contour>
  </outline>
</glyph>
<glyph name="Q" format="1">
  <advance width="2710"/>
  <unicode hex="0051"/>
  <outline>
    <contour>
      <point x="2521" y="-96" type="qcurve" smooth="yes"/>
      <point x="2558" y="-96"/>
      <point x="2648" y="-85"/>
      <point x="2689" y="-76" type="qcurve"/>
      <point x="2689" y="-477" type="line"/>
      <point x="2648" y="-491"/>
      <point x="2561" y="-500"/>
      <point x="2505" y="-500" type="qcurve" smooth="yes"/>
      <point x="2311" y="-500"/>
      <point x="2060" y="-376"/>
      <point x="1937" y="-201" type="qcurve" smooth="yes"/>
      <point x="1782" y="25" type="line"/>
      <point x="1689" y="-9"/>
      <point x="1470" y="-51"/>
      <point x="1356" y="-51" type="qcurve" smooth="yes"/>
      <point x="813" y="-51"/>
      <point x="164" y="704"/>
      <point x="164" y="1409" type="qcurve" smooth="yes"/>
      <point x="164" y="1610" type="line" smooth="yes"/>
      <point x="164" y="2311"/>
      <point x="813" y="3070"/>
      <point x="1356" y="3070" type="qcurve" smooth="yes"/>
      <point x="1894" y="3070"/>
      <point x="2546" y="2314"/>
      <point x="2546" y="1610" type="qcurve" smooth="yes"/>
      <point x="2546" y="1409" type="line" smooth="yes"/>
      <point x="2546" y="1006"/>
      <point x="2318" y="396"/>
      <point x="2118" y="217" type="qcurve"/>
      <point x="2241" y="59" type="line" smooth="yes"/>
      <point x="2303" y="-23"/>
      <point x="2426" y="-96"/>
    </contour>
    <contour>
      <point x="1456" y="1061" type="line"/>
      <point x="1753" y="653" type="line"/>
      <point x="1797" y="736"/>
      <point x="1853" y="1043"/>
      <point x="1853" y="1272" type="qcurve" smooth="yes"/>
      <point x="1853" y="1690" type="line" smooth="yes"/>
      <point x="1853" y="2101"/>
      <point x="1608" y="2562"/>
      <point x="1356" y="2562" type="qcurve" smooth="yes"/>
      <point x="1102" y="2562"/>
      <point x="856" y="2102"/>
      <point x="856" y="1694" type="qcurve" smooth="yes"/>
      <point x="856" y="1272" type="line" smooth="yes"/>
      <point x="856" y="861"/>
      <point x="1102" y="399"/>
      <point x="1356" y="399" type="qcurve" smooth="yes"/>
      <point x="1408" y="399"/>
      <point x="1510" y="423"/>
      <point x="1548" y="444" type="qcurve"/>
      <point x="1229" y="920" type="line"/>
    </contour>
  </outline>
</glyph>
<glyph name="R" format="1">
  <advance width="2605"/>
  <unicode hex="0052"/>
  <outline>
    <contour>
      <point x="2417" y="2122" type="qcurve" smooth="yes"/>
      <point x="2417" y="1808"/>
      <point x="2098" y="1393"/>
      <point x="1804" y="1309" type="qcurve"/>
      <point x="2546" y="0" type="line"/>
      <point x="1825" y="0" type="line"/>
      <point x="1161" y="1217" type="line"/>
      <point x="913" y="1217" type="line"/>
      <point x="913" y="0" type="line"/>
      <point x="244" y="0" type="line"/>
      <point x="244" y="3021" type="line"/>
      <point x="1337" y="3021" type="line" smooth="yes"/>
      <point x="1833" y="3021"/>
      <point x="2417" y="2579"/>
    </contour>
    <contour>
      <point x="889" y="1661" type="line"/>
      <point x="1257" y="1661" type="line" smooth="yes"/>
      <point x="1496" y="1661"/>
      <point x="1749" y="1892"/>
      <point x="1749" y="2114" type="qcurve" smooth="yes"/>
      <point x="1749" y="2331"/>
      <point x="1491" y="2546"/>
      <point x="1249" y="2546" type="qcurve" smooth="yes"/>
      <point x="889" y="2546" type="line"/>
    </contour>
  </outline>
</glyph>
<glyph name="W" format="1">
  <advance width="4143.972352"/>
  <unicode hex="0057"/>
  <outline>
    <contour>
      <point x="2941" y="793" type="line"/>
      <point x="3377" y="3021" type="line"/>
      <point x="4051" y="3021" type="line"/>
      <point x="3305" y="-20" type="line"/>
      <point x="2589" y="-20" type="line"/>
      <point x="2077" y="2169" type="line"/>
      <point x="2050" y="2169" type="line"/>
      <point x="1540" y="-20" type="line"/>
      <point x="825" y="-20" type="line"/>
      <point x="80" y="3021" type="line"/>
      <point x="776" y="3021" type="line"/>
      <point x="1208" y="793" type="line"/>
      <point x="1233" y="793" type="line"/>
      <point x="1720" y="3021" type="line"/>
      <point x="2429" y="3021" type="line"/>
      <point x="2918" y="793" type="line"/>
    </contour>
  </outline>
</glyph>
<glyph name="Y" format="1">
  <advance width="2696.937472"/>
  <unicode hex="0059"/>
  <outline>
    <contour>
      <point x="1380" y="1782" type="line"/>
      <point x="2001" y="3021" type="line"/>
      <point x="2662" y="3021" type="line"/>
      <point x="1686" y="1192" type="line"/>
      <point x="1686" y="0" type="line"/>
      <point x="1016" y="0" type="line"/>
      <point x="1016" y="1178" type="line"/>
      <point x="37" y="3021" type="line"/>
      <point x="756" y="3021" type="line"/>
    </contour>
  </outline>
</glyph>
<glyph name="Z" format="1">
  <advance width="2382.364672"/>
  <unicode hex="005A"/>
  <outline>
    <contour>
      <point x="893" y="520" type="line"/>
      <point x="2253" y="520" type="line"/>
      <point x="2253" y="0" type="line"/>
      <point x="129" y="0" type="line"/>
      <point x="129" y="457" type="line"/>
      <point x="1489" y="2501" type="line"/>
      <point x="197" y="2501" type="line"/>
      <point x="197" y="3021" type="line"/>
      <point x="2253" y="3021" type="line"/>
      <point x="2253" y="2562" type="line"/>
    </contour>
  </outline>
</glyph>
<glyph name="bracketleft" format="1">
  <advance width="1631.584256"/>
  <unicode hex="005B"/>
  <outline>
    <contour>
      <point x="840" y="-104" type="line"/>
      <point x="1536" y="-80" type="line"/>
      <point x="1536" y="-336" type="line"/>
      <point x="248" y="-377" type="line"/>
      <point x="248" y="3062" type="line"/>
      <point x="1536" y="3021" type="line"/>
      <point x="1536" y="2765" type="line"/>
      <point x="840" y="2789" type="line"/>
    </contour>
  </outline>
</glyph>
<glyph name="bracketright" format="1">
  <advance width="1631.584256"/>
  <unicode hex="005D"/>
  <outline>
    <contour>
      <point x="96" y="3021" type="line"/>
      <point x="1384" y="3062" type="line"/>
      <point x="1384" y="-377" type="line"/>
      <point x="96" y="-336" type="line"/>
      <point x="96" y="-80" type="line"/>
      <point x="793" y="-104" type="line"/>
      <point x="793" y="2789" type="line"/>
      <point x="96" y="2765" type="line"/>
    </contour>
  </outline>
</glyph>
<glyph name="asciicircum" format="1">
  <advance width="2306.8672"/>
  <unicode hex="005E"/>
  <outline>
    <contour>
      <point x="860" y="3041" type="line"/>
      <point x="1448" y="3041" type="line"/>
      <point x="2181" y="1708" type="line"/>
      <point x="1769" y="1708" type="line"/>
      <point x="1153" y="2505" type="line"/>
      <point x="537" y="1708" type="line"/>
      <point x="125" y="1708" type="line"/>
    </contour>
  </outline>
</glyph>
<glyph name="underscore" format="1">
  <advance width="2097.152"/>
  <unicode hex="005F"/>
  <outline>
    <contour>
      <point x="-12" y="-147" type="line"/>
      <point x="2109" y="-147" type="line"/>
      <point x="2109" y="-424" type="line"/>
      <point x="-12" y="-424" type="line"/>
    </contour>
  </outline>
</glyph>
<glyph name="grave" format="1">
  <advance width="2097.152"/>
  <unicode hex="0060"/>
  <outline>
    <contour>
      <point x="461" y="3117" type="line"/>
      <point x="1174" y="3117" type="line"/>
      <point x="1501" y="2482" type="line"/>
      <point x="1090" y="2482" type="line"/>
    </contour>
  </outline>
</glyph>
<glyph name="c" format="1">
  <advance width="2059"/>
  <unicode hex="0063"/>
  <outline>
    <contour>
      <point x="1104" y="369" type="qcurve" smooth="yes"/>
      <point x="1222" y="369"/>
      <point x="1377" y="548"/>
      <point x="1425" y="768" type="qcurve"/>
      <point x="1976" y="653" type="line"/>
      <point x="1891" y="300"/>
      <point x="1439" y="-41"/>
      <point x="1081" y="-41" type="qcurve" smooth="yes"/>
      <point x="644" y="-41"/>
      <point x="125" y="556"/>
      <point x="125" y="1069" type="qcurve" smooth="yes"/>
      <point x="125" y="1161" type="line" smooth="yes"/>
      <point x="125" y="1672"/>
      <point x="653" y="2273"/>
      <point x="1104" y="2273" type="qcurve" smooth="yes"/>
      <point x="1466" y="2273"/>
      <point x="1898" y="1914"/>
      <point x="1968" y="1561" type="qcurve"/>
      <point x="1405" y="1448" type="line"/>
      <point x="1368" y="1660"/>
      <point x="1233" y="1862"/>
      <point x="1096" y="1862" type="qcurve" smooth="yes"/>
      <point x="926" y="1862"/>
      <point x="756" y="1516"/>
      <point x="756" y="1137" type="qcurve" smooth="yes"/>
      <point x="756" y="1096" type="line" smooth="yes"/>
      <point x="756" y="720"/>
      <point x="931" y="369"/>
    </contour>
  </outline>
</glyph>
<glyph name="e" format="1">
  <advance width="2106"/>
  <unicode hex="0065"/>
  <outline>
    <contour>
      <point x="1208" y="395" type="qcurve" smooth="yes"/>
      <point x="1355" y="395"/>
      <point x="1656" y="492"/>
      <point x="1829" y="596" type="qcurve"/>
      <point x="1985" y="209" type="line"/>
      <point x="1764" y="84"/>
      <point x="1375" y="-33"/>
      <point x="1112" y="-33" type="qcurve" smooth="yes"/>
      <point x="652" y="-33"/>
      <point x="125" y="548"/>
      <point x="125" y="1077" type="qcurve" smooth="yes"/>
      <point x="125" y="1161" type="line" smooth="yes"/>
      <point x="125" y="1672"/>
      <point x="637" y="2273"/>
      <point x="1053" y="2273" type="qcurve" smooth="yes"/>
      <point x="1482" y="2273"/>
      <point x="1968" y="1677"/>
      <point x="1968" y="1157" type="qcurve" smooth="yes"/>
      <point x="1968" y="969" type="line"/>
      <point x="713" y="969" type="line"/>
      <point x="728" y="652"/>
      <point x="996" y="395"/>
    </contour>
    <contour>
      <point x="1053" y="1909" type="qcurve" smooth="yes"/>
      <point x="891" y="1909"/>
      <point x="719" y="1581"/>
      <point x="713" y="1225" type="qcurve"/>
      <point x="1380" y="1225" type="line"/>
      <point x="1368" y="1598"/>
      <point x="1212" y="1909"/>
    </contour>
  </outline>
</glyph>
<glyph name="f" format="1">
  <advance width="1627"/>
  <unicode hex="0066"/>
  <outline>
    <contour>
      <point x="1200" y="3183" type="qcurve" smooth="yes"/>
      <point x="1368" y="3183"/>
      <point x="1592" y="3153"/>
      <point x="1698" y="3125" type="qcurve"/>
      <point x="1698" y="2697" type="line"/>
      <point x="1620" y="2728"/>
      <point x="1464" y="2757"/>
      <point x="1356" y="2757" type="qcurve" smooth="yes"/>
      <point x="1214" y="2757"/>
      <point x="1073" y="2621"/>
      <point x="1073" y="2470" type="qcurve" smooth="yes"/>
      <point x="1073" y="2218" type="line"/>
      <point x="1606" y="2218" type="line"/>
      <point x="1606" y="1796" type="line"/>
      <point x="1073" y="1796" type="line"/>
      <point x="1073" y="0" type="line"/>
      <point x="449" y="0" type="line"/>
      <point x="449" y="1796" type="line"/>
      <point x="51" y="1796" type="line"/>
      <point x="51" y="2218" type="line"/>
      <point x="449" y="2218" type="line"/>
      <point x="449" y="2454" type="line" smooth="yes"/>
      <point x="449" y="2814"/>
      <point x="839" y="3183"/>
    </contour>
  </outline>
</glyph>
<glyph name="h" format="1">
  <advance width="2269"/>
  <unicode hex="0068"/>
  <outline>
    <contour>
      <point x="1602" y="2261" type="qcurve" smooth="yes"/>
      <point x="1834" y="2261"/>
      <point x="2081" y="1969"/>
      <point x="2081" y="1690" type="qcurve" smooth="yes"/>
      <point x="2081" y="0" type="line"/>
      <point x="1452" y="0" type="line"/>
      <point x="1452" y="1544" type="line" smooth="yes"/>
      <point x="1452" y="1679"/>
      <point x="1340" y="1817"/>
      <point x="1221" y="1817" type="qcurve" smooth="yes"/>
      <point x="1133" y="1817"/>
      <point x="941" y="1693"/>
      <point x="848" y="1577" type="qcurve"/>
      <point x="848" y="0" type="line"/>
      <point x="213" y="0" type="line"/>
      <point x="213" y="3074" type="line"/>
      <point x="848" y="3174" type="line"/>
      <point x="848" y="1774" type="line"/>
      <point x="864" y="1774" type="line"/>
      <point x="1049" y="2015"/>
      <point x="1392" y="2261"/>
    </contour>
  </outline>
</glyph>
<glyph name="i" format="1">
  <advance width="1098.907648"/>
  <unicode hex="0069"/>
  <outline>
    <contour>
      <point x="236" y="2232" type="line"/>
      <point x="864" y="2232" type="line"/>
      <point x="864" y="0" type="line"/>
      <point x="236" y="0" type="line"/>
    </contour>
    <contour>
      <point x="209" y="3049" type="line"/>
      <point x="889" y="3049" type="line"/>
      <point x="889" y="2558" type="line"/>
      <point x="209" y="2558" type="line"/>
    </contour>
  </outline>
</glyph>
<glyph name="j" format="1">
  <advance width="1099"/>
  <unicode hex="006A"/>
  <outline>
    <contour>
      <point x="236" y="2232" type="line"/>
      <point x="864" y="2232" type="line"/>
      <point x="864" y="-96" type="line" smooth="yes"/>
      <point x="864" y="-484"/>
      <point x="505" y="-797"/>
      <point x="176" y="-797" type="qcurve" smooth="yes"/>
      <point x="39" y="-797"/>
      <point x="-152" y="-766"/>
      <point x="-244" y="-737" type="qcurve"/>
      <point x="-244" y="-360" type="line"/>
      <point x="-181" y="-382"/>
      <point x="-75" y="-403"/>
      <point x="-12" y="-403" type="qcurve" smooth="yes"/>
      <point x="98" y="-403"/>
      <point x="236" y="-280"/>
      <point x="236" y="-129" type="qcurve" smooth="yes"/>
    </contour>
    <contour>
      <point x="209" y="3049" type="line"/>
      <point x="889" y="3049" type="line"/>
      <point x="889" y="2558" type="line"/>
      <point x="209" y="2558" type="line"/>
    </contour>
  </outline>
</glyph>
<glyph name="k" format="1">
  <advance width="2281.701376"/>
  <unicode hex="006B"/>
  <outline>
    <contour>
      <point x="2249" y="2232" type="line"/>
      <point x="1526" y="1137" type="line"/>
      <point x="2290" y="0" type="line"/>
      <point x="1606" y="0" type="line"/>
      <point x="897" y="1120" type="line"/>
      <point x="897" y="1133" type="line"/>
      <point x="1581" y="2232" type="line"/>
    </contour>
    <contour>
      <point x="213" y="3074" type="line"/>
      <point x="848" y="3174" type="line"/>
      <point x="848" y="0" type="line"/>
      <point x="213" y="0" type="line"/>
    </contour>
  </outline>
</glyph>
<glyph name="l" format="1">
  <advance width="1098.907648"/>
  <unicode hex="006C"/>
  <outline>
    <contour>
      <point x="236" y="3074" type="line"/>
      <point x="864" y="3174" type="line"/>
      <point x="864" y="0" type="line"/>
      <point x="236" y="0" type="line"/>
    </contour>
  </outline>
</glyph>
<glyph name="m" format="1">
  <advance width="3473"/>
  <unicode hex="006D"/>
  <outline>
    <contour>
      <point x="2806" y="2261" type="qcurve" smooth="yes"/>
      <point x="3038" y="2261"/>
      <point x="3285" y="1969"/>
      <point x="3285" y="1690" type="qcurve" smooth="yes"/>
      <point x="3285" y="0" type="line"/>
      <point x="2650" y="0" type="line"/>
      <point x="2650" y="1544" type="line" smooth="yes"/>
      <point x="2650" y="1679"/>
      <point x="2545" y="1817"/>
      <point x="2429" y="1817" type="qcurve" smooth="yes"/>
      <point x="2340" y="1817"/>
      <point x="2155" y="1694"/>
      <point x="2064" y="1581" type="qcurve"/>
      <point x="2064" y="0" type="line"/>
      <point x="1434" y="0" type="line"/>
      <point x="1434" y="1544" type="line" smooth="yes"/>
      <point x="1434" y="1679"/>
      <point x="1324" y="1817"/>
      <point x="1208" y="1817" type="qcurve" smooth="yes"/>
      <point x="1120" y="1817"/>
      <point x="935" y="1694"/>
      <point x="848" y="1581" type="qcurve"/>
      <point x="848" y="0" type="line"/>
      <point x="213" y="0" type="line"/>
      <point x="213" y="2169" type="line"/>
      <point x="848" y="2269" type="line"/>
      <point x="848" y="1774" type="line"/>
      <point x="864" y="1774" type="line"/>
      <point x="1049" y="2015"/>
      <point x="1379" y="2261"/>
      <point x="1585" y="2261" type="qcurve" smooth="yes"/>
      <point x="1795" y="2261"/>
      <point x="2033" y="2023"/>
      <point x="2056" y="1804" type="qcurve"/>
      <point x="2056" y="1774" type="line"/>
      <point x="2085" y="1774" type="line"/>
      <point x="2270" y="2015"/>
      <point x="2596" y="2261"/>
    </contour>
  </outline>
</glyph>
<glyph name="o" format="1">
  <advance width="2219"/>
  <unicode hex="006F"/>
  <outline>
    <contour>
      <point x="1108" y="2273" type="qcurve" smooth="yes"/>
      <point x="1568" y="2273"/>
      <point x="2093" y="1676"/>
      <point x="2093" y="1165" type="qcurve" smooth="yes"/>
      <point x="2093" y="1069" type="line" smooth="yes"/>
      <point x="2093" y="559"/>
      <point x="1568" y="-41"/>
      <point x="1108" y="-41" type="qcurve" smooth="yes"/>
      <point x="648" y="-41"/>
      <point x="125" y="556"/>
      <point x="125" y="1069" type="qcurve" smooth="yes"/>
      <point x="125" y="1161" type="line" smooth="yes"/>
      <point x="125" y="1672"/>
      <point x="648" y="2273"/>
    </contour>
    <contour>
      <point x="756" y="1069" type="line" smooth="yes"/>
      <point x="756" y="690"/>
      <point x="929" y="340"/>
      <point x="1108" y="340" type="qcurve" smooth="yes"/>
      <point x="1285" y="340"/>
      <point x="1464" y="689"/>
      <point x="1464" y="1065" type="qcurve" smooth="yes"/>
      <point x="1464" y="1165" type="line" smooth="yes"/>
      <point x="1464" y="1541"/>
      <point x="1285" y="1892"/>
      <point x="1108" y="1892" type="qcurve" smooth="yes"/>
      <point x="929" y="1892"/>
      <point x="756" y="1541"/>
      <point x="756" y="1165" type="qcurve" smooth="yes"/>
    </contour>
  </outline>
</glyph>
<glyph name="p" format="1">
  <advance width="2303"/>
  <unicode hex="0070"/>
  <outline>
    <contour>
      <point x="1481" y="2265" type="qcurve" smooth="yes"/>
      <point x="1797" y="2265"/>
      <point x="2169" y="1699"/>
      <point x="2169" y="1165" type="qcurve" smooth="yes"/>
      <point x="2169" y="1069" type="line" smooth="yes"/>
      <point x="2169" y="537"/>
      <point x="1782" y="-33"/>
      <point x="1481" y="-33" type="qcurve" smooth="yes"/>
      <point x="1265" y="-33"/>
      <point x="983" y="199"/>
      <point x="864" y="403" type="qcurve"/>
      <point x="848" y="403" type="line"/>
      <point x="848" y="-788" type="line"/>
      <point x="213" y="-788" type="line"/>
      <point x="213" y="2169" type="line"/>
      <point x="848" y="2269" type="line"/>
      <point x="848" y="1825" type="line"/>
      <point x="864" y="1825" type="line"/>
      <point x="996" y="2028"/>
      <point x="1277" y="2265"/>
    </contour>
    <contour>
      <point x="844" y="1112" type="qcurve" smooth="yes"/>
      <point x="844" y="754"/>
      <point x="1044" y="373"/>
      <point x="1204" y="373" type="qcurve" smooth="yes"/>
      <point x="1351" y="373"/>
      <point x="1548" y="715"/>
      <point x="1548" y="1112" type="qcurve" smooth="yes"/>
      <point x="1548" y="1522"/>
      <point x="1348" y="1858"/>
      <point x="1204" y="1858" type="qcurve" smooth="yes"/>
      <point x="1044" y="1858"/>
      <point x="844" y="1474"/>
    </contour>
  </outline>
</glyph>
<glyph name="q" format="1">
  <advance width="2303"/>
  <unicode hex="0071"/>
  <outline>
    <contour>
      <point x="1456" y="2269" type="line"/>
      <point x="2089" y="2169" type="line"/>
      <point x="2089" y="-788" type="line"/>
      <point x="1456" y="-788" type="line"/>
      <point x="1456" y="408" type="line"/>
      <point x="1434" y="408" type="line"/>
      <point x="1305" y="207"/>
      <point x="1025" y="-33"/>
      <point x="817" y="-33" type="qcurve" smooth="yes"/>
      <point x="502" y="-33"/>
      <point x="135" y="534"/>
      <point x="135" y="1069" type="qcurve" smooth="yes"/>
      <point x="135" y="1161" type="line" smooth="yes"/>
      <point x="135" y="1693"/>
      <point x="522" y="2265"/>
      <point x="821" y="2265" type="qcurve" smooth="yes"/>
      <point x="1035" y="2265"/>
      <point x="1319" y="2032"/>
      <point x="1434" y="1829" type="qcurve"/>
      <point x="1456" y="1829" type="line"/>
    </contour>
    <contour>
      <point x="756" y="1120" type="qcurve" smooth="yes"/>
      <point x="756" y="711"/>
      <point x="954" y="373"/>
      <point x="1096" y="373" type="qcurve" smooth="yes"/>
      <point x="1255" y="373"/>
      <point x="1460" y="757"/>
      <point x="1460" y="1120" type="qcurve" smooth="yes"/>
      <point x="1460" y="1476"/>
      <point x="1258" y="1858"/>
      <point x="1096" y="1858" type="qcurve" smooth="yes"/>
      <point x="950" y="1858"/>
      <point x="756" y="1518"/>
    </contour>
  </outline>
</glyph>
<glyph name="r" format="1">
  <advance width="1753"/>
  <unicode hex="0072"/>
  <outline>
    <contour>
      <point x="864" y="1417" type="line"/>
      <point x="1077" y="1834"/>
      <point x="1479" y="2237"/>
      <point x="1698" y="2269" type="qcurve"/>
      <point x="1698" y="1624" type="line"/>
      <point x="1423" y="1586"/>
      <point x="1001" y="1351"/>
      <point x="848" y="1192" type="qcurve"/>
      <point x="848" y="0" type="line"/>
      <point x="213" y="0" type="line"/>
      <point x="213" y="2169" type="line"/>
      <point x="848" y="2269" type="line"/>
      <point x="848" y="1417" type="line"/>
    </contour>
  </outline>
</glyph>
<glyph name="v" format="1">
  <advance width="2239.758336"/>
  <unicode hex="0076"/>
  <outline>
    <contour>
      <point x="1137" y="625" type="line"/>
      <point x="1569" y="2232" type="line"/>
      <point x="2185" y="2232" type="line"/>
      <point x="1464" y="-20" type="line"/>
      <point x="776" y="-20" type="line"/>
      <point x="55" y="2232" type="line"/>
      <point x="705" y="2232" type="line"/>
    </contour>
  </outline>
</glyph>
<glyph name="w" format="1">
  <advance width="3447.717888"/>
  <unicode hex="0077"/>
  <outline>
    <contour>
      <point x="2429" y="672" type="line"/>
      <point x="2765" y="2232" type="line"/>
      <point x="3385" y="2232" type="line"/>
      <point x="2757" y="-16" type="line"/>
      <point x="2101" y="-16" type="line"/>
      <point x="1733" y="1477" type="line"/>
      <point x="1360" y="-16" type="line"/>
      <point x="692" y="-16" type="line"/>
      <point x="68" y="2232" type="line"/>
      <point x="717" y="2232" type="line"/>
      <point x="1053" y="672" type="line"/>
      <point x="1434" y="2232" type="line"/>
      <point x="2046" y="2232" type="line"/>
    </contour>
  </outline>
</glyph>
<glyph name="x" format="1">
  <advance width="2243.95264"/>
  <unicode hex="0078"/>
  <outline>
    <contour>
      <point x="2161" y="2232" type="line"/>
      <point x="1452" y="1157" type="line"/>
      <point x="2181" y="0" type="line"/>
      <point x="1501" y="0" type="line"/>
      <point x="1100" y="700" type="line"/>
      <point x="684" y="0" type="line"/>
      <point x="63" y="0" type="line"/>
      <point x="793" y="1112" type="line"/>
      <point x="84" y="2232" type="line"/>
      <point x="764" y="2232" type="line"/>
      <point x="1145" y="1565" type="line"/>
      <point x="1540" y="2232" type="line"/>
    </contour>
  </outline>
</glyph>
<glyph name="z" format="1">
  <advance width="1925.185536"/>
  <unicode hex="007A"/>
  <outline>
    <contour>
      <point x="821" y="424" type="line"/>
      <point x="1825" y="424" type="line"/>
      <point x="1825" y="0" type="line"/>
      <point x="109" y="0" type="line"/>
      <point x="109" y="373" type="line"/>
      <point x="1112" y="1804" type="line"/>
      <point x="172" y="1804" type="line"/>
      <point x="172" y="2226" type="line"/>
      <point x="1825" y="2226" type="line"/>
      <point x="1825" y="1853" type="line"/>
    </contour>
  </outline>
</glyph>
<glyph name="bar" format="1">
  <advance width="1090.51904"/>
  <unicode hex="007C"/>
  <outline>
    <contour>
      <point x="285" y="3197" type="line"/>
      <point x="805" y="3197" type="line"/>
      <point x="805" y="-788" type="line"/>
      <point x="285" y="-788" type="line"/>
    </contour>
  </outline>
</glyph>
<glyph name="braceright" format="1">
  <advance width="1854"/>
  <unicode hex="007D"/>
  <outline>
    <contour>
      <point x="1245" y="1874" type="qcurve" smooth="yes"/>
      <point x="1245" y="1652"/>
      <point x="1561" y="1468"/>
      <point x="1796" y="1468" type="qcurve"/>
      <point x="1796" y="1217" type="line"/>
      <point x="1561" y="1217"/>
      <point x="1245" y="1032"/>
      <point x="1245" y="809" type="qcurve" smooth="yes"/>
      <point x="1245" y="671"/>
      <point x="1329" y="327"/>
      <point x="1329" y="193" type="qcurve" smooth="yes"/>
      <point x="1329" y="-67"/>
      <point x="1012" y="-336"/>
      <point x="705" y="-336" type="qcurve" smooth="yes"/>
      <point x="104" y="-336" type="line"/>
      <point x="104" y="-80" type="line"/>
      <point x="420" y="-80" type="line" smooth="yes"/>
      <point x="579" y="-80"/>
      <point x="737" y="78"/>
      <point x="737" y="213" type="qcurve" smooth="yes"/>
      <point x="737" y="323"/>
      <point x="653" y="656"/>
      <point x="653" y="809" type="qcurve" smooth="yes"/>
      <point x="653" y="1050"/>
      <point x="920" y="1265"/>
      <point x="1096" y="1325" type="qcurve"/>
      <point x="1096" y="1360" type="line"/>
      <point x="920" y="1418"/>
      <point x="653" y="1634"/>
      <point x="653" y="1874" type="qcurve" smooth="yes"/>
      <point x="653" y="2028"/>
      <point x="737" y="2361"/>
      <point x="737" y="2470" type="qcurve" smooth="yes"/>
      <point x="737" y="2604"/>
      <point x="579" y="2765"/>
      <point x="420" y="2765" type="qcurve" smooth="yes"/>
      <point x="104" y="2765" type="line"/>
      <point x="104" y="3021" type="line"/>
      <point x="705" y="3021" type="line" smooth="yes"/>
      <point x="1012" y="3021"/>
      <point x="1329" y="2751"/>
      <point x="1329" y="2492" type="qcurve" smooth="yes"/>
      <point x="1329" y="2356"/>
      <point x="1245" y="2013"/>
    </contour>
  </outline>
</glyph>
<glyph name="cent" format="1">
  <advance width="2106"/>
  <unicode hex="00A2"/>
  <outline>
    <contour>
      <point x="1497" y="2202" type="qcurve"/>
      <point x="1690" y="2630" type="line"/>
      <point x="2046" y="2630" type="line"/>
      <point x="969" y="385" type="line"/>
      <point x="1001" y="370"/>
      <point x="1066" y="356"/>
      <point x="1104" y="356" type="qcurve" smooth="yes"/>
      <point x="1225" y="356"/>
      <point x="1410" y="539"/>
      <point x="1460" y="768" type="qcurve"/>
      <point x="1976" y="653" type="line"/>
      <point x="1891" y="300"/>
      <point x="1439" y="-41"/>
      <point x="1081" y="-41" type="qcurve" smooth="yes"/>
      <point x="997" y="-41"/>
      <point x="841" y="-17"/>
      <point x="772" y="4" type="qcurve"/>
      <point x="575" y="-399" type="line"/>
      <point x="217" y="-399" type="line"/>
      <point x="500" y="143" type="line"/>
      <point x="321" y="278"/>
      <point x="125" y="756"/>
      <point x="125" y="1069" type="qcurve" smooth="yes"/>
      <point x="125" y="1161" type="line" smooth="yes"/>
      <point x="125" y="1672"/>
      <point x="653" y="2273"/>
      <point x="1104" y="2273" type="qcurve" smooth="yes"/>
      <point x="1215" y="2273"/>
      <point x="1413" y="2237"/>
    </contour>
    <contour>
      <point x="717" y="1096" type="line" smooth="yes"/>
      <point x="717" y="954"/>
      <point x="771" y="720"/>
      <point x="817" y="641" type="qcurve"/>
      <point x="1317" y="1821" type="line"/>
      <point x="1273" y="1848"/>
      <point x="1174" y="1874"/>
      <point x="1108" y="1874" type="qcurve" smooth="yes"/>
      <point x="926" y="1874"/>
      <point x="717" y="1525"/>
      <point x="717" y="1137" type="qcurve" smooth="yes"/>
    </contour>
  </outline>
</glyph>
<glyph name="sterling" format="1">
  <advance width="2546"/>
  <unicode hex="00A3"/>
  <outline>
    <contour>
      <point x="1614" y="487" type="qcurve" smooth="yes"/>
      <point x="1805" y="487"/>
      <point x="2002" y="670"/>
      <point x="2077" y="901" type="qcurve"/>
      <point x="2478" y="768" type="line"/>
      <point x="2385" y="357"/>
      <point x="2044" y="-25"/>
      <point x="1712" y="-25" type="qcurve" smooth="yes"/>
      <point x="1501" y="-25"/>
      <point x="1140" y="114"/>
      <point x="940" y="240" type="qcurve"/>
      <point x="806" y="133"/>
      <point x="425" y="-3"/>
      <point x="180" y="-25" type="qcurve"/>
      <point x="180" y="424" type="line"/>
      <point x="425" y="468"/>
      <point x="672" y="712"/>
      <point x="672" y="969" type="qcurve" smooth="yes"/>
      <point x="672" y="1070"/>
      <point x="638" y="1254"/>
      <point x="616" y="1341" type="qcurve"/>
      <point x="135" y="1341" type="line"/>
      <point x="135" y="1657" type="line"/>
      <point x="512" y="1657" type="line"/>
      <point x="468" y="1788"/>
      <point x="403" y="2063"/>
      <point x="403" y="2210" type="qcurve" smooth="yes"/>
      <point x="403" y="2586"/>
      <point x="895" y="3070"/>
      <point x="1372" y="3070" type="qcurve" smooth="yes"/>
      <point x="1812" y="3070"/>
      <point x="2249" y="2732"/>
      <point x="2378" y="2454" type="qcurve"/>
      <point x="1833" y="2202" type="line"/>
      <point x="1740" y="2399"/>
      <point x="1526" y="2593"/>
      <point x="1364" y="2593" type="qcurve" smooth="yes"/>
      <point x="1176" y="2593"/>
      <point x="993" y="2381"/>
      <point x="993" y="2206" type="qcurve" smooth="yes"/>
      <point x="993" y="2074"/>
      <point x="1073" y="1804"/>
      <point x="1120" y="1657" type="qcurve"/>
      <point x="1888" y="1657" type="line"/>
      <point x="1888" y="1341" type="line"/>
      <point x="1204" y="1341" type="line"/>
      <point x="1226" y="1257"/>
      <point x="1249" y="1065"/>
      <point x="1249" y="965" type="qcurve" smooth="yes"/>
      <point x="1249" y="868"/>
      <point x="1219" y="700"/>
      <point x="1192" y="625" type="qcurve"/>
      <point x="1307" y="556"/>
      <point x="1518" y="487"/>
    </contour>
  </outline>
</glyph>
<glyph name="yen" format="1">
  <advance width="2684.35456"/>
  <unicode hex="00A5"/>
  <outline>
    <contour>
      <point x="1372" y="1708" type="line"/>
      <point x="1997" y="3021" type="line"/>
      <point x="2642" y="3021" type="line"/>
      <point x="1929" y="1698" type="line"/>
      <point x="2454" y="1698" type="line"/>
      <point x="2454" y="1384" type="line"/>
      <point x="1761" y="1384" type="line"/>
      <point x="1657" y="1192" type="line"/>
      <point x="1657" y="897" type="line"/>
      <point x="2454" y="897" type="line"/>
      <point x="2454" y="584" type="line"/>
      <point x="1657" y="584" type="line"/>
      <point x="1657" y="0" type="line"/>
      <point x="1028" y="0" type="line"/>
      <point x="1028" y="584" type="line"/>
      <point x="236" y="584" type="line"/>
      <point x="236" y="897" type="line"/>
      <point x="1028" y="897" type="line"/>
      <point x="1028" y="1178" type="line"/>
      <point x="920" y="1384" type="line"/>
      <point x="236" y="1384" type="line"/>
      <point x="236" y="1698" type="line"/>
      <point x="756" y="1698" type="line"/>
      <point x="41" y="3021" type="line"/>
      <point x="748" y="3021" type="line"/>
    </contour>
  </outline>
</glyph>
<glyph name="section" format="1">
  <advance width="2525"/>
  <unicode hex="00A7"/>
  <outline>
    <contour>
      <point x="864" y="2509" type="qcurve" smooth="yes"/>
      <point x="864" y="2414"/>
      <point x="1076" y="2274"/>
      <point x="1501" y="2169" type="qcurve" smooth="yes"/>
      <point x="2018" y="2040"/>
      <point x="2417" y="1739"/>
      <point x="2417" y="1536" type="qcurve" smooth="yes"/>
      <point x="2417" y="1331"/>
      <point x="2061" y="1063"/>
      <point x="1745" y="1032" type="qcurve"/>
      <point x="1745" y="1008" type="line"/>
      <point x="1948" y="934"/>
      <point x="2165" y="680"/>
      <point x="2165" y="500" type="qcurve" smooth="yes"/>
      <point x="2165" y="255"/>
      <point x="1739" y="-51"/>
      <point x="1325" y="-51" type="qcurve" smooth="yes"/>
      <point x="1022" y="-51"/>
      <point x="552" y="69"/>
      <point x="315" y="201" type="qcurve"/>
      <point x="532" y="565" type="line"/>
      <point x="745" y="451"/>
      <point x="1152" y="344"/>
      <point x="1350" y="344" type="qcurve" smooth="yes"/>
      <point x="1501" y="344"/>
      <point x="1657" y="437"/>
      <point x="1657" y="512" type="qcurve" smooth="yes"/>
      <point x="1657" y="605"/>
      <point x="1449" y="745"/>
      <point x="1024" y="852" type="qcurve" smooth="yes"/>
      <point x="504" y="980"/>
      <point x="109" y="1282"/>
      <point x="109" y="1485" type="qcurve" smooth="yes"/>
      <point x="109" y="1688"/>
      <point x="464" y="1957"/>
      <point x="780" y="1989" type="qcurve"/>
      <point x="780" y="2013" type="line"/>
      <point x="577" y="2085"/>
      <point x="356" y="2339"/>
      <point x="356" y="2521" type="qcurve" smooth="yes"/>
      <point x="356" y="2766"/>
      <point x="786" y="3070"/>
      <point x="1200" y="3070" type="qcurve" smooth="yes"/>
      <point x="1503" y="3070"/>
      <point x="1970" y="2949"/>
      <point x="2210" y="2818" type="qcurve"/>
      <point x="1989" y="2454" type="line"/>
      <point x="1779" y="2570"/>
      <point x="1371" y="2677"/>
      <point x="1174" y="2677" type="qcurve" smooth="yes"/>
      <point x="1024" y="2677"/>
      <point x="864" y="2584"/>
    </contour>
    <contour>
      <point x="1065" y="1237" type="qcurve" smooth="yes"/>
      <point x="1178" y="1206"/>
      <point x="1403" y="1174"/>
      <point x="1518" y="1174" type="qcurve" smooth="yes"/>
      <point x="1715" y="1174"/>
      <point x="1958" y="1308"/>
      <point x="1958" y="1434" type="qcurve" smooth="yes"/>
      <point x="1958" y="1544"/>
      <point x="1725" y="1707"/>
      <point x="1456" y="1782" type="qcurve" smooth="yes"/>
      <point x="1346" y="1814"/>
      <point x="1122" y="1845"/>
      <point x="1008" y="1845" type="qcurve" smooth="yes"/>
      <point x="809" y="1845"/>
      <point x="565" y="1710"/>
      <point x="565" y="1585" type="qcurve" smooth="yes"/>
      <point x="565" y="1475"/>
      <point x="799" y="1312"/>
    </contour>
  </outline>
</glyph>
<glyph name="ordfeminine" format="1">
  <advance width="1694"/>
  <unicode hex="00AA"/>
  <outline>
    <contour>
      <point x="1409" y="1837" type="line" smooth="yes"/>
      <point x="1409" y="1759"/>
      <point x="1466" y="1691"/>
      <point x="1548" y="1681" type="qcurve"/>
      <point x="1548" y="1518" type="line"/>
      <point x="1307" y="1515"/>
      <point x="1061" y="1627"/>
      <point x="1024" y="1737" type="qcurve"/>
      <point x="926" y="1624"/>
      <point x="712" y="1513"/>
      <point x="584" y="1513" type="qcurve" smooth="yes"/>
      <point x="414" y="1513"/>
      <point x="176" y="1719"/>
      <point x="176" y="1913" type="qcurve" smooth="yes"/>
      <point x="176" y="2138"/>
      <point x="584" y="2404"/>
      <point x="1008" y="2421" type="qcurve"/>
      <point x="1008" y="2550" type="line" smooth="yes"/>
      <point x="1008" y="2645"/>
      <point x="912" y="2746"/>
      <point x="817" y="2746" type="qcurve" smooth="yes"/>
      <point x="730" y="2746"/>
      <point x="517" y="2683"/>
      <point x="377" y="2605" type="qcurve"/>
      <point x="260" y="2865" type="line"/>
      <point x="419" y="2946"/>
      <point x="718" y="3041"/>
      <point x="889" y="3041" type="qcurve" smooth="yes"/>
      <point x="1161" y="3041"/>
      <point x="1409" y="2812"/>
      <point x="1409" y="2558" type="qcurve" smooth="yes"/>
    </contour>
    <contour>
      <point x="571" y="1962" type="qcurve" smooth="yes"/>
      <point x="571" y="1872"/>
      <point x="675" y="1769"/>
      <point x="764" y="1769" type="qcurve" smooth="yes"/>
      <point x="833" y="1769"/>
      <point x="954" y="1828"/>
      <point x="1008" y="1884" type="qcurve"/>
      <point x="1008" y="2257" type="line"/>
      <point x="763" y="2239"/>
      <point x="571" y="2078"/>
    </contour>
    <contour>
      <point x="188" y="1253" type="line"/>
      <point x="1509" y="1253" type="line"/>
      <point x="1509" y="1024" type="line"/>
      <point x="188" y="1024" type="line"/>
    </contour>
  </outline>
</glyph>
<glyph name="guillemotleft" format="1">
  <advance width="2126.512128"/>
  <unicode hex="00AB"/>
  <outline>
    <contour>
      <point x="1090" y="1937" type="line"/>
      <point x="713" y="1116" type="line"/>
      <point x="1090" y="293" type="line"/>
      <point x="752" y="293" type="line"/>
      <point x="72" y="1116" type="line"/>
      <point x="752" y="1937" type="line"/>
    </contour>
    <contour>
      <point x="2009" y="1937" type="line"/>
      <point x="1632" y="1116" type="line"/>
      <point x="2009" y="293" type="line"/>
      <point x="1669" y="293" type="line"/>
      <point x="989" y="1116" type="line"/>
      <point x="1669" y="1937" type="line"/>
    </contour>
  </outline>
</glyph>
<glyph name="uni00AE" format="1">
  <advance width="3473"/>
  <unicode hex="00AE"/>
  <outline>
    <contour>
      <point x="2425" y="1896" type="qcurve" smooth="yes"/>
      <point x="2425" y="1715"/>
      <point x="2243" y="1471"/>
      <point x="2081" y="1417" type="qcurve"/>
      <point x="2513" y="659" type="line"/>
      <point x="2056" y="659" type="line"/>
      <point x="1673" y="1356" type="line"/>
      <point x="1556" y="1356" type="line"/>
      <point x="1556" y="659" type="line"/>
      <point x="1133" y="659" type="line"/>
      <point x="1133" y="2425" type="line"/>
      <point x="1782" y="2425" type="line" smooth="yes"/>
      <point x="2077" y="2425"/>
      <point x="2425" y="2162"/>
    </contour>
    <contour>
      <point x="176" y="1505" type="qcurve" smooth="yes"/>
      <point x="176" y="2172"/>
      <point x="1074" y="3070"/>
      <point x="1741" y="3070" type="qcurve" smooth="yes"/>
      <point x="2404" y="3070"/>
      <point x="3297" y="2178"/>
      <point x="3297" y="1513" type="qcurve" smooth="yes"/>
      <point x="3297" y="847"/>
      <point x="2399" y="-51"/>
      <point x="1733" y="-51" type="qcurve" smooth="yes"/>
      <point x="1069" y="-51"/>
      <point x="176" y="842"/>
    </contour>
    <contour>
      <point x="360" y="1513" type="qcurve" smooth="yes"/>
      <point x="360" y="910"/>
      <point x="1137" y="109"/>
      <point x="1741" y="109" type="qcurve" smooth="yes"/>
      <point x="2341" y="109"/>
      <point x="3113" y="905"/>
      <point x="3113" y="1505" type="qcurve" smooth="yes"/>
      <point x="3113" y="2109"/>
      <point x="2336" y="2910"/>
      <point x="1733" y="2910" type="qcurve" smooth="yes"/>
      <point x="1132" y="2910"/>
      <point x="360" y="2116"/>
    </contour>
    <contour>
      <point x="1540" y="1645" type="line"/>
      <point x="1737" y="1645" type="line" smooth="yes"/>
      <point x="1868" y="1645"/>
      <point x="2005" y="1770"/>
      <point x="2005" y="1892" type="qcurve" smooth="yes"/>
      <point x="2005" y="2004"/>
      <point x="1867" y="2122"/>
      <point x="1733" y="2122" type="qcurve" smooth="yes"/>
      <point x="1540" y="2122" type="line"/>
    </contour>
  </outline>
</glyph>
<glyph name="degree" format="1">
  <advance width="1678"/>
  <unicode hex="00B0"/>
  <outline>
    <contour>
      <point x="176" y="2382" type="qcurve" smooth="yes"/>
      <point x="176" y="2668"/>
      <point x="554" y="3037"/>
      <point x="840" y="3037" type="qcurve" smooth="yes"/>
      <point x="1124" y="3037"/>
      <point x="1501" y="2668"/>
      <point x="1501" y="2382" type="qcurve" smooth="yes"/>
      <point x="1501" y="2094"/>
      <point x="1124" y="1724"/>
      <point x="840" y="1724" type="qcurve" smooth="yes"/>
      <point x="554" y="1724"/>
      <point x="176" y="2094"/>
    </contour>
    <contour>
      <point x="487" y="2382" type="qcurve" smooth="yes"/>
      <point x="487" y="2217"/>
      <point x="679" y="1997"/>
      <point x="840" y="1997" type="qcurve" smooth="yes"/>
      <point x="999" y="1997"/>
      <point x="1192" y="2217"/>
      <point x="1192" y="2382" type="qcurve" smooth="yes"/>
      <point x="1192" y="2545"/>
      <point x="999" y="2765"/>
      <point x="840" y="2765" type="qcurve" smooth="yes"/>
      <point x="679" y="2765"/>
      <point x="487" y="2545"/>
    </contour>
  </outline>
</glyph>
<glyph name="ordmasculine" format="1">
  <advance width="1694"/>
  <unicode hex="00BA"/>
  <outline>
    <contour>
      <point x="176" y="2273" type="qcurve" smooth="yes"/>
      <point x="176" y="2637"/>
      <point x="532" y="3049"/>
      <point x="848" y="3049" type="qcurve" smooth="yes"/>
      <point x="1160" y="3049"/>
      <point x="1518" y="2637"/>
      <point x="1518" y="2273" type="qcurve" smooth="yes"/>
      <point x="1518" y="1910"/>
      <point x="1160" y="1497"/>
      <point x="848" y="1497" type="qcurve" smooth="yes"/>
      <point x="532" y="1497"/>
      <point x="176" y="1910"/>
    </contour>
    <contour>
      <point x="608" y="2277" type="qcurve" smooth="yes"/>
      <point x="608" y="2014"/>
      <point x="726" y="1765"/>
      <point x="848" y="1765" type="qcurve" smooth="yes"/>
      <point x="967" y="1765"/>
      <point x="1085" y="2009"/>
      <point x="1085" y="2269" type="qcurve" smooth="yes"/>
      <point x="1085" y="2532"/>
      <point x="967" y="2781"/>
      <point x="848" y="2781" type="qcurve" smooth="yes"/>
      <point x="726" y="2781"/>
      <point x="608" y="2537"/>
    </contour>
    <contour>
      <point x="205" y="1253" type="line"/>
      <point x="1489" y="1253" type="line"/>
      <point x="1489" y="1024" type="line"/>
      <point x="205" y="1024" type="line"/>
    </contour>
  </outline>
</glyph>
<glyph name="Ccedilla" format="1">
  <advance width="2554"/>
  <unicode hex="00C7"/>
  <outline>
    <contour>
      <point x="1350" y="457" type="qcurve" smooth="yes"/>
      <point x="1557" y="457"/>
      <point x="1781" y="768"/>
      <point x="1837" y="1085" type="qcurve"/>
      <point x="2454" y="940" type="line"/>
      <point x="2369" y="489"/>
      <point x="1862" y="-28"/>
      <point x="1417" y="-51" type="qcurve"/>
      <point x="1313" y="-193" type="line"/>
      <point x="1351" y="-183"/>
      <point x="1458" y="-172"/>
      <point x="1518" y="-172" type="qcurve" smooth="yes"/>
      <point x="1675" y="-172"/>
      <point x="1874" y="-289"/>
      <point x="1874" y="-412" type="qcurve" smooth="yes"/>
      <point x="1874" y="-615"/>
      <point x="1362" y="-810"/>
      <point x="776" y="-801" type="qcurve"/>
      <point x="776" y="-672" type="line"/>
      <point x="1186" y="-672"/>
      <point x="1501" y="-571"/>
      <point x="1501" y="-487" type="qcurve" smooth="yes"/>
      <point x="1501" y="-443"/>
      <point x="1428" y="-395"/>
      <point x="1356" y="-395" type="qcurve" smooth="yes"/>
      <point x="1296" y="-395"/>
      <point x="1181" y="-419"/>
      <point x="1124" y="-440" type="qcurve"/>
      <point x="985" y="-356" type="line"/>
      <point x="1221" y="-47" type="line"/>
      <point x="742" y="-6"/>
      <point x="164" y="746"/>
      <point x="164" y="1409" type="qcurve" smooth="yes"/>
      <point x="164" y="1610" type="line" smooth="yes"/>
      <point x="164" y="2311"/>
      <point x="810" y="3070"/>
      <point x="1341" y="3070" type="qcurve" smooth="yes"/>
      <point x="1858" y="3070"/>
      <point x="2366" y="2518"/>
      <point x="2441" y="2093" type="qcurve"/>
      <point x="1800" y="1942" type="line"/>
      <point x="1750" y="2261"/>
      <point x="1539" y="2562"/>
      <point x="1341" y="2562" type="qcurve" smooth="yes"/>
      <point x="1085" y="2562"/>
      <point x="856" y="2082"/>
      <point x="856" y="1694" type="qcurve" smooth="yes"/>
      <point x="856" y="1329" type="line" smooth="yes"/>
      <point x="856" y="941"/>
      <point x="1090" y="457"/>
    </contour>
  </outline>
</glyph>
<glyph name="Eth" format="1">
  <advance width="2840"/>
  <unicode hex="00D0"/>
  <outline>
    <contour>
      <point x="1417" y="3021" type="line" smooth="yes"/>
      <point x="2003" y="3021"/>
      <point x="2689" y="2285"/>
      <point x="2689" y="1589" type="qcurve" smooth="yes"/>
      <point x="2689" y="1434" type="line" smooth="yes"/>
      <point x="2689" y="737"/>
      <point x="1995" y="0"/>
      <point x="1413" y="0" type="qcurve" smooth="yes"/>
      <point x="408" y="0" type="line"/>
      <point x="408" y="1300" type="line"/>
      <point x="84" y="1300" type="line"/>
      <point x="84" y="1821" type="line"/>
      <point x="408" y="1821" type="line"/>
      <point x="408" y="3021" type="line"/>
    </contour>
    <contour>
      <point x="1036" y="508" type="line"/>
      <point x="1397" y="508" type="line" smooth="yes"/>
      <point x="1687" y="508"/>
      <point x="1993" y="940"/>
      <point x="1993" y="1372" type="qcurve" smooth="yes"/>
      <point x="1993" y="1645" type="line" smooth="yes"/>
      <point x="1993" y="2079"/>
      <point x="1688" y="2513"/>
      <point x="1389" y="2513" type="qcurve" smooth="yes"/>
      <point x="1036" y="2513" type="line"/>
      <point x="1036" y="1821" type="line"/>
      <point x="1464" y="1821" type="line"/>
      <point x="1464" y="1300" type="line"/>
      <point x="1036" y="1300" type="line"/>
    </contour>
  </outline>
</glyph>
<glyph name="multiply" format="1">
  <advance width="2516.5824"/>
  <unicode hex="00D7"/>
  <outline>
    <contour>
      <point x="2324" y="2173" type="line"/>
      <point x="1614" y="1489" type="line"/>
      <point x="2324" y="805" type="line"/>
      <point x="1942" y="424" type="line"/>
      <point x="1257" y="1133" type="line"/>
      <point x="575" y="424" type="line"/>
      <point x="193" y="805" type="line"/>
      <point x="901" y="1489" type="line"/>
      <point x="193" y="2173" type="line"/>
      <point x="575" y="2554" type="line"/>
      <point x="1257" y="1845" type="line"/>
      <point x="1942" y="2554" type="line"/>
    </contour>
  </outline>
</glyph>
<glyph name="Oslash" format="1">
  <advance width="2710"/>
  <unicode hex="00D8"/>
  <outline>
    <contour>
      <point x="2173" y="2750" type="line"/>
      <point x="2352" y="2567"/>
      <point x="2546" y="1992"/>
      <point x="2546" y="1610" type="qcurve" smooth="yes"/>
      <point x="2546" y="1409" type="line" smooth="yes"/>
      <point x="2546" y="708"/>
      <point x="1894" y="-51"/>
      <point x="1356" y="-51" type="qcurve" smooth="yes"/>
      <point x="1195" y="-51"/>
      <point x="912" y="22"/>
      <point x="793" y="88" type="qcurve"/>
      <point x="549" y="-399" type="line"/>
      <point x="164" y="-399" type="line"/>
      <point x="532" y="272" type="line"/>
      <point x="354" y="457"/>
      <point x="164" y="1030"/>
      <point x="164" y="1409" type="qcurve" smooth="yes"/>
      <point x="164" y="1610" type="line" smooth="yes"/>
      <point x="164" y="2311"/>
      <point x="813" y="3070"/>
      <point x="1356" y="3070" type="qcurve" smooth="yes"/>
      <point x="1512" y="3070"/>
      <point x="1794" y="3002"/>
      <point x="1913" y="2933" type="qcurve"/>
      <point x="2161" y="3426" type="line"/>
      <point x="2546" y="3426" type="line"/>
    </contour>
    <contour>
      <point x="1032" y="575" type="line"/>
      <point x="1086" y="507"/>
      <point x="1255" y="432"/>
      <point x="1356" y="432" type="qcurve" smooth="yes"/>
      <point x="1619" y="432"/>
      <point x="1888" y="900"/>
      <point x="1888" y="1325" type="qcurve" smooth="yes"/>
      <point x="1888" y="1690" type="line" smooth="yes"/>
      <point x="1888" y="1815"/>
      <point x="1859" y="2091"/>
      <point x="1829" y="2181" type="qcurve"/>
    </contour>
    <contour>
      <point x="821" y="1329" type="line" smooth="yes"/>
      <point x="821" y="1204"/>
      <point x="856" y="951"/>
      <point x="881" y="864" type="qcurve"/>
      <point x="1681" y="2458" type="line"/>
      <point x="1622" y="2520"/>
      <point x="1461" y="2589"/>
      <point x="1356" y="2589" type="qcurve" smooth="yes"/>
      <point x="1091" y="2589"/>
      <point x="821" y="2117"/>
      <point x="821" y="1694" type="qcurve" smooth="yes"/>
    </contour>
  </outline>
</glyph>
<glyph name="Thorn" format="1">
  <advance width="2483"/>
  <unicode hex="00DE"/>
  <outline>
    <contour>
      <point x="913" y="2482" type="line"/>
      <point x="1292" y="2482" type="line" smooth="yes"/>
      <point x="1792" y="2482"/>
      <point x="2390" y="2034"/>
      <point x="2390" y="1577" type="qcurve" smooth="yes"/>
      <point x="2390" y="1102"/>
      <point x="1797" y="621"/>
      <point x="1257" y="621" type="qcurve" smooth="yes"/>
      <point x="913" y="621" type="line"/>
      <point x="913" y="0" type="line"/>
      <point x="244" y="0" type="line"/>
      <point x="244" y="3021" type="line"/>
      <point x="913" y="3021" type="line"/>
    </contour>
    <contour>
      <point x="889" y="1104" type="line"/>
      <point x="1229" y="1104" type="line" smooth="yes"/>
      <point x="1470" y="1104"/>
      <point x="1720" y="1347"/>
      <point x="1720" y="1569" type="qcurve" smooth="yes"/>
      <point x="1720" y="1784"/>
      <point x="1465" y="2009"/>
      <point x="1221" y="2009" type="qcurve" smooth="yes"/>
      <point x="889" y="2009" type="line"/>
    </contour>
  </outline>
</glyph>
<glyph name="germandbls" format="1">
  <advance width="2563"/>
  <unicode hex="00DF"/>
  <outline>
    <contour>
      <point x="1749" y="1753" type="qcurve"/>
      <point x="1749" y="1729" type="line"/>
      <point x="2024" y="1631"/>
      <point x="2445" y="1192"/>
      <point x="2445" y="813" type="qcurve" smooth="yes"/>
      <point x="2445" y="400"/>
      <point x="1979" y="-29"/>
      <point x="1573" y="-29" type="qcurve" smooth="yes"/>
      <point x="1400" y="-29"/>
      <point x="1181" y="27"/>
      <point x="1090" y="72" type="qcurve"/>
      <point x="1157" y="473" type="line"/>
      <point x="1223" y="433"/>
      <point x="1358" y="395"/>
      <point x="1456" y="395" type="qcurve" smooth="yes"/>
      <point x="1612" y="395"/>
      <point x="1825" y="618"/>
      <point x="1825" y="821" type="qcurve" smooth="yes"/>
      <point x="1825" y="1107"/>
      <point x="1464" y="1465"/>
      <point x="1145" y="1526" type="qcurve"/>
      <point x="1145" y="1913" type="line"/>
      <point x="1380" y="1937"/>
      <point x="1602" y="2198"/>
      <point x="1602" y="2386" type="qcurve" smooth="yes"/>
      <point x="1602" y="2553"/>
      <point x="1410" y="2769"/>
      <point x="1225" y="2769" type="qcurve" smooth="yes"/>
      <point x="1031" y="2769"/>
      <point x="848" y="2500"/>
      <point x="848" y="2265" type="qcurve" smooth="yes"/>
      <point x="848" y="0" type="line"/>
      <point x="213" y="0" type="line"/>
      <point x="213" y="2193" type="line" smooth="yes"/>
      <point x="213" y="2686"/>
      <point x="772" y="3183"/>
      <point x="1241" y="3183" type="qcurve" smooth="yes"/>
      <point x="1713" y="3183"/>
      <point x="2210" y="2761"/>
      <point x="2210" y="2429" type="qcurve" smooth="yes"/>
      <point x="2210" y="2140"/>
      <point x="1940" y="1828"/>
    </contour>
  </outline>
</glyph>
<glyph name="ae" format="1">
  <advance width="3314"/>
  <unicode hex="00E6"/>
  <outline>
    <contour>
      <point x="2421" y="395" type="qcurve" smooth="yes"/>
      <point x="2564" y="395"/>
      <point x="2864" y="492"/>
      <point x="3037" y="596" type="qcurve"/>
      <point x="3193" y="209" type="line"/>
      <point x="2973" y="84"/>
      <point x="2583" y="-33"/>
      <point x="2320" y="-33" type="qcurve" smooth="yes"/>
      <point x="2061" y="-33"/>
      <point x="1660" y="166"/>
      <point x="1536" y="348" type="qcurve"/>
      <point x="1366" y="179"/>
      <point x="977" y="-25"/>
      <point x="741" y="-25" type="qcurve" smooth="yes"/>
      <point x="451" y="-25"/>
      <point x="92" y="281"/>
      <point x="92" y="565" type="qcurve" smooth="yes"/>
      <point x="92" y="905"/>
      <point x="702" y="1293"/>
      <point x="1333" y="1321" type="qcurve"/>
      <point x="1333" y="1540" type="line" smooth="yes"/>
      <point x="1333" y="1678"/>
      <point x="1184" y="1829"/>
      <point x="1040" y="1829" type="qcurve" smooth="yes"/>
      <point x="915" y="1829"/>
      <point x="603" y="1732"/>
      <point x="389" y="1620" type="qcurve"/>
      <point x="223" y="1993" type="line"/>
      <point x="457" y="2115"/>
      <point x="870" y="2257"/>
      <point x="1108" y="2257" type="qcurve" smooth="yes"/>
      <point x="1351" y="2257"/>
      <point x="1615" y="2077"/>
      <point x="1665" y="1921" type="qcurve"/>
      <point x="1694" y="1921" type="line"/>
      <point x="1776" y="2074"/>
      <point x="2062" y="2273"/>
      <point x="2290" y="2273" type="qcurve" smooth="yes"/>
      <point x="2710" y="2273"/>
      <point x="3174" y="1677"/>
      <point x="3174" y="1157" type="qcurve" smooth="yes"/>
      <point x="3174" y="969" type="line"/>
      <point x="1925" y="969" type="line"/>
      <point x="1940" y="652"/>
      <point x="2207" y="395"/>
    </contour>
    <contour>
      <point x="664" y="653" type="qcurve" smooth="yes"/>
      <point x="664" y="500"/>
      <point x="836" y="344"/>
      <point x="989" y="344" type="qcurve" smooth="yes"/>
      <point x="1090" y="344"/>
      <point x="1320" y="444"/>
      <point x="1425" y="541" type="qcurve"/>
      <point x="1380" y="651"/>
      <point x="1333" y="904"/>
      <point x="1333" y="1044" type="qcurve" smooth="yes"/>
      <point x="1333" y="1085" type="line"/>
      <point x="965" y="1061"/>
      <point x="664" y="823"/>
    </contour>
    <contour>
      <point x="2261" y="1909" type="qcurve" smooth="yes"/>
      <point x="2097" y="1909"/>
      <point x="1927" y="1581"/>
      <point x="1921" y="1225" type="qcurve"/>
      <point x="2589" y="1225" type="line"/>
      <point x="2578" y="1598"/>
      <point x="2420" y="1909"/>
    </contour>
  </outline>
</glyph>
<glyph name="divide" format="1">
  <advance width="2517"/>
  <unicode hex="00F7"/>
  <outline>
    <contour>
      <point x="905" y="528" type="qcurve" smooth="yes"/>
      <point x="905" y="678"/>
      <point x="1108" y="881"/>
      <point x="1257" y="881" type="qcurve" smooth="yes"/>
      <point x="1409" y="881"/>
      <point x="1610" y="678"/>
      <point x="1610" y="528" type="qcurve" smooth="yes"/>
      <point x="1610" y="379"/>
      <point x="1409" y="176"/>
      <point x="1257" y="176" type="qcurve" smooth="yes"/>
      <point x="1108" y="176"/>
      <point x="905" y="379"/>
    </contour>
    <contour>
      <point x="905" y="2449" type="qcurve" smooth="yes"/>
      <point x="905" y="2599"/>
      <point x="1108" y="2802"/>
      <point x="1257" y="2802" type="qcurve" smooth="yes"/>
      <point x="1409" y="2802"/>
      <point x="1610" y="2599"/>
      <point x="1610" y="2449" type="qcurve" smooth="yes"/>
      <point x="1610" y="2300"/>
      <point x="1409" y="2097"/>
      <point x="1257" y="2097" type="qcurve" smooth="yes"/>
      <point x="1108" y="2097"/>
      <point x="905" y="2300"/>
    </contour>
    <contour>
      <point x="160" y="1745" type="line"/>
      <point x="2357" y="1745" type="line"/>
      <point x="2357" y="1233" type="line"/>
      <point x="160" y="1233" type="line"/>
    </contour>
  </outline>
</glyph>
<glyph name="oslash" format="1">
  <advance width="2219"/>
  <unicode hex="00F8"/>
  <outline>
    <contour>
      <point x="1765" y="2046" type="line"/>
      <point x="1923" y="1902"/>
      <point x="2093" y="1451"/>
      <point x="2093" y="1165" type="qcurve" smooth="yes"/>
      <point x="2093" y="1069" type="line" smooth="yes"/>
      <point x="2093" y="559"/>
      <point x="1568" y="-41"/>
      <point x="1108" y="-41" type="qcurve" smooth="yes"/>
      <point x="995" y="-41"/>
      <point x="791" y="1"/>
      <point x="700" y="41" type="qcurve"/>
      <point x="487" y="-399" type="line"/>
      <point x="125" y="-399" type="line"/>
      <point x="453" y="184" type="line"/>
      <point x="297" y="325"/>
      <point x="125" y="779"/>
      <point x="125" y="1069" type="qcurve" smooth="yes"/>
      <point x="125" y="1161" type="line" smooth="yes"/>
      <point x="125" y="1672"/>
      <point x="648" y="2273"/>
      <point x="1108" y="2273" type="qcurve" smooth="yes"/>
      <point x="1223" y="2273"/>
      <point x="1427" y="2231"/>
      <point x="1518" y="2189" type="qcurve"/>
      <point x="1733" y="2630" type="line"/>
      <point x="2093" y="2630" type="line"/>
    </contour>
    <contour>
      <point x="709" y="1069" type="line" smooth="yes"/>
      <point x="709" y="953"/>
      <point x="745" y="759"/>
      <point x="780" y="684" type="qcurve"/>
      <point x="1337" y="1821" type="line"/>
      <point x="1291" y="1868"/>
      <point x="1174" y="1917"/>
      <point x="1108" y="1917" type="qcurve" smooth="yes"/>
      <point x="926" y="1917"/>
      <point x="709" y="1560"/>
      <point x="709" y="1165" type="qcurve" smooth="yes"/>
    </contour>
    <contour>
      <point x="881" y="412" type="line"/>
      <point x="928" y="361"/>
      <point x="1042" y="319"/>
      <point x="1108" y="319" type="qcurve" smooth="yes"/>
      <point x="1288" y="319"/>
      <point x="1509" y="671"/>
      <point x="1509" y="1065" type="qcurve" smooth="yes"/>
      <point x="1509" y="1165" type="line" smooth="yes"/>
      <point x="1509" y="1278"/>
      <point x="1473" y="1469"/>
      <point x="1438" y="1544" type="qcurve"/>
    </contour>
  </outline>
</glyph>
<glyph name="lslash" format="1">
  <advance width="1421.869056"/>
  <unicode hex="0142"/>
  <outline>
    <contour>
      <point x="1016" y="1954" type="line"/>
      <point x="1333" y="2097" type="line"/>
      <point x="1333" y="1589" type="line"/>
      <point x="1016" y="1452" type="line"/>
      <point x="1016" y="0" type="line"/>
      <point x="408" y="0" type="line"/>
      <point x="408" y="1221" type="line"/>
      <point x="84" y="1077" type="line"/>
      <point x="84" y="1585" type="line"/>
      <point x="408" y="1724" type="line"/>
      <point x="408" y="3074" type="line"/>
      <point x="1016" y="3174" type="line"/>
    </contour>
  </outline>
</glyph>
<glyph name="OE" format="1">
  <advance width="3792"/>
  <unicode hex="0152"/>
  <outline>
    <contour>
      <point x="2374" y="512" type="line"/>
      <point x="3666" y="512" type="line"/>
      <point x="3666" y="0" type="line"/>
      <point x="1485" y="0" type="line" smooth="yes"/>
      <point x="858" y="0"/>
      <point x="164" y="736"/>
      <point x="164" y="1430" type="qcurve" smooth="yes"/>
      <point x="164" y="1585" type="line" smooth="yes"/>
      <point x="164" y="2284"/>
      <point x="866" y="3021"/>
      <point x="1493" y="3021" type="qcurve" smooth="yes"/>
      <point x="3615" y="3021" type="line"/>
      <point x="3615" y="2509" type="line"/>
      <point x="2374" y="2509" type="line"/>
      <point x="2374" y="1804" type="line"/>
      <point x="3297" y="1804" type="line"/>
      <point x="3297" y="1313" type="line"/>
      <point x="2374" y="1313" type="line"/>
    </contour>
    <contour>
      <point x="844" y="1368" type="line" smooth="yes"/>
      <point x="844" y="936"/>
      <point x="1196" y="496"/>
      <point x="1522" y="496" type="qcurve" smooth="yes"/>
      <point x="1733" y="496" type="line"/>
      <point x="1733" y="2525" type="line"/>
      <point x="1513" y="2525" type="line" smooth="yes"/>
      <point x="1197" y="2525"/>
      <point x="844" y="2085"/>
      <point x="844" y="1653" type="qcurve" smooth="yes"/>
    </contour>
  </outline>
</glyph>
<glyph name="florin" format="1">
  <advance width="2143"/>
  <unicode hex="0192"/>
  <outline>
    <contour>
      <point x="717" y="2378" type="line" smooth="yes"/>
      <point x="779" y="2735"/>
      <point x="1191" y="3045"/>
      <point x="1513" y="3045" type="qcurve" smooth="yes"/>
      <point x="1695" y="3045"/>
      <point x="1966" y="3012"/>
      <point x="2073" y="2986" type="qcurve"/>
      <point x="1997" y="2562" type="line"/>
      <point x="1913" y="2585"/>
      <point x="1751" y="2605"/>
      <point x="1649" y="2605" type="qcurve" smooth="yes"/>
      <point x="1517" y="2605"/>
      <point x="1358" y="2461"/>
      <point x="1329" y="2310" type="qcurve" smooth="yes"/>
      <point x="1266" y="1972" type="line"/>
      <point x="1796" y="1972" type="line"/>
      <point x="1724" y="1544" type="line"/>
      <point x="1196" y="1544" type="line"/>
      <point x="893" y="-160" type="line" smooth="yes"/>
      <point x="830" y="-507"/>
      <point x="432" y="-797"/>
      <point x="125" y="-797" type="qcurve" smooth="yes"/>
      <point x="-13" y="-797"/>
      <point x="-231" y="-774"/>
      <point x="-319" y="-756" type="qcurve"/>
      <point x="-244" y="-348" type="line"/>
      <point x="-190" y="-357"/>
      <point x="-78" y="-369"/>
      <point x="-12" y="-369" type="qcurve" smooth="yes"/>
      <point x="110" y="-369"/>
      <point x="252" y="-242"/>
      <point x="276" y="-104" type="qcurve" smooth="yes"/>
      <point x="571" y="1544" type="line"/>
      <point x="172" y="1544" type="line"/>
      <point x="244" y="1972" type="line"/>
      <point x="645" y="1972" type="line"/>
    </contour>
  </outline>
</glyph>
<glyph name="caron" format="1">
  <advance width="2097.152"/>
  <unicode hex="02C7"/>
  <outline>
    <contour>
      <point x="1053" y="2826" type="line"/>
      <point x="1460" y="3178" type="line"/>
      <point x="1757" y="3178" type="line"/>
      <point x="1284" y="2482" type="line"/>
      <point x="813" y="2482" type="line"/>
      <point x="340" y="3178" type="line"/>
      <point x="645" y="3178" type="line"/>
    </contour>
  </outline>
</glyph>
<glyph name="breve" format="1">
  <advance width="2097"/>
  <unicode hex="02D8"/>
  <outline>
    <contour>
      <point x="1049" y="2806" type="qcurve" smooth="yes"/>
      <point x="1246" y="2806"/>
      <point x="1434" y="3004"/>
      <point x="1460" y="3178" type="qcurve"/>
      <point x="1716" y="3178" type="line"/>
      <point x="1706" y="2850"/>
      <point x="1383" y="2470"/>
      <point x="1049" y="2470" type="qcurve" smooth="yes"/>
      <point x="714" y="2470"/>
      <point x="392" y="2850"/>
      <point x="381" y="3178" type="qcurve"/>
      <point x="637" y="3178" type="line"/>
      <point x="663" y="3004"/>
      <point x="851" y="2806"/>
    </contour>
  </outline>
</glyph>
<glyph name="dotaccent" format="1">
  <advance width="2097.152"/>
  <unicode hex="02D9"/>
  <outline>
    <contour>
      <point x="788" y="3011" type="line"/>
      <point x="1309" y="3011" type="line"/>
      <point x="1309" y="2482" type="line"/>
      <point x="788" y="2482" type="line"/>
    </contour>
  </outline>
</glyph>
<glyph name="ogonek" format="1">
  <advance width="2097"/>
  <unicode hex="02DB"/>
  <outline>
    <contour>
      <point x="1204" y="-561" type="qcurve" smooth="yes"/>
      <point x="1294" y="-561"/>
      <point x="1463" y="-533"/>
      <point x="1573" y="-500" type="qcurve"/>
      <point x="1640" y="-659" type="line"/>
      <point x="1506" y="-728"/>
      <point x="1219" y="-797"/>
      <point x="1053" y="-797" type="qcurve" smooth="yes"/>
      <point x="831" y="-797"/>
      <point x="584" y="-628"/>
      <point x="584" y="-477" type="qcurve" smooth="yes"/>
      <point x="584" y="-343"/>
      <point x="813" y="-101"/>
      <point x="1024" y="0" type="qcurve"/>
      <point x="1296" y="0" type="line"/>
      <point x="1127" y="-119"/>
      <point x="993" y="-314"/>
      <point x="993" y="-399" type="qcurve" smooth="yes"/>
      <point x="993" y="-474"/>
      <point x="1106" y="-561"/>
    </contour>
  </outline>
</glyph>
<glyph name="tilde" format="1">
  <advance width="2097"/>
  <unicode hex="02DC"/>
  <outline>
    <contour>
      <point x="1325" y="2890" type="qcurve" smooth="yes"/>
      <point x="1400" y="2890"/>
      <point x="1469" y="2992"/>
      <point x="1473" y="3105" type="qcurve"/>
      <point x="1769" y="3105" type="line"/>
      <point x="1785" y="2782"/>
      <point x="1589" y="2478"/>
      <point x="1376" y="2478" type="qcurve" smooth="yes"/>
      <point x="1176" y="2478"/>
      <point x="885" y="2701"/>
      <point x="772" y="2701" type="qcurve" smooth="yes"/>
      <point x="697" y="2701"/>
      <point x="628" y="2599"/>
      <point x="625" y="2486" type="qcurve"/>
      <point x="328" y="2486" type="line"/>
      <point x="312" y="2809"/>
      <point x="508" y="3113"/>
      <point x="721" y="3113" type="qcurve" smooth="yes"/>
      <point x="921" y="3113"/>
      <point x="1212" y="2890"/>
    </contour>
  </outline>
</glyph>
<glyph name="hungarumlaut" format="1">
  <advance width="2097.152"/>
  <unicode hex="02DD"/>
  <outline>
    <contour>
      <point x="129" y="2482" type="line"/>
      <point x="457" y="3117" type="line"/>
      <point x="1133" y="3117" type="line"/>
      <point x="504" y="2482" type="line"/>
    </contour>
    <contour>
      <point x="1012" y="2482" type="line"/>
      <point x="1337" y="3117" type="line"/>
      <point x="2013" y="3117" type="line"/>
      <point x="1384" y="2482" type="line"/>
    </contour>
  </outline>
</glyph>
<glyph name="endash" format="1">
  <advance width="2097.152"/>
  <unicode hex="2013"/>
  <outline>
    <contour>
      <point x="152" y="1468" type="line"/>
      <point x="1946" y="1468" type="line"/>
      <point x="1946" y="948" type="line"/>
      <point x="152" y="948" type="line"/>
    </contour>
  </outline>
</glyph>
<glyph name="quoteleft" format="1">
  <advance width="989.855744"/>
  <unicode hex="2018"/>
  <unicode hex="02BB"/>
  <outline>
    <contour>
      <point x="72" y="3021" type="line"/>
      <point x="748" y="3021" type="line"/>
      <point x="864" y="1845" type="line"/>
      <point x="516" y="1845" type="line"/>
    </contour>
  </outline>
</glyph>
<glyph name="quotedblleft" format="1">
  <advance width="1853.882368"/>
  <unicode hex="201C"/>
  <outline>
    <contour>
      <point x="72" y="3021" type="line"/>
      <point x="733" y="3021" type="line"/>
      <point x="848" y="1845" type="line"/>
      <point x="516" y="1845" type="line"/>
    </contour>
    <contour>
      <point x="948" y="3021" type="line"/>
      <point x="1610" y="3021" type="line"/>
      <point x="1724" y="1845" type="line"/>
      <point x="1393" y="1845" type="line"/>
    </contour>
  </outline>
</glyph>
<glyph name="quotedblright" format="1">
  <advance width="1853.882368"/>
  <unicode hex="201D"/>
  <outline>
    <contour>
      <point x="125" y="1845" type="line"/>
      <point x="244" y="3021" type="line"/>
      <point x="901" y="3021" type="line"/>
      <point x="461" y="1845" type="line"/>
    </contour>
    <contour>
      <point x="1001" y="1845" type="line"/>
      <point x="1120" y="3021" type="line"/>
      <point x="1778" y="3021" type="line"/>
      <point x="1337" y="1845" type="line"/>
    </contour>
  </outline>
</glyph>
<glyph name="quotedblbase" format="1">
  <advance width="1853.882368"/>
  <unicode hex="201E"/>
  <outline>
    <contour>
      <point x="109" y="-483" type="line"/>
      <point x="227" y="692" type="line"/>
      <point x="885" y="692" type="line"/>
      <point x="444" y="-483" type="line"/>
    </contour>
    <contour>
      <point x="985" y="-483" type="line"/>
      <point x="1104" y="692" type="line"/>
      <point x="1761" y="692" type="line"/>
      <point x="1321" y="-483" type="line"/>
    </contour>
  </outline>
</glyph>
<glyph name="dagger" format="1">
  <advance width="2013.26592"/>
  <unicode hex="2020"/>
  <outline>
    <contour>
      <point x="1188" y="2165" type="line"/>
      <point x="1913" y="2314" type="line"/>
      <point x="1913" y="1833" type="line"/>
      <point x="1188" y="1980" type="line"/>
      <point x="1337" y="1425" type="line"/>
      <point x="1120" y="0" type="line"/>
      <point x="893" y="0" type="line"/>
      <point x="676" y="1425" type="line"/>
      <point x="825" y="1980" type="line"/>
      <point x="104" y="1833" type="line"/>
      <point x="104" y="2314" type="line"/>
      <point x="825" y="2165" type="line"/>
      <point x="676" y="3021" type="line"/>
      <point x="1337" y="3021" type="line"/>
    </contour>
  </outline>
</glyph>
<glyph name="daggerdbl" format="1">
  <advance width="2139.09504"/>
  <unicode hex="2021"/>
  <outline>
    <contour>
      <point x="1237" y="956" type="line"/>
      <point x="1976" y="1104" type="line"/>
      <point x="1976" y="621" type="line"/>
      <point x="1237" y="772" type="line"/>
      <point x="1401" y="0" type="line"/>
      <point x="737" y="0" type="line"/>
      <point x="901" y="772" type="line"/>
      <point x="168" y="621" type="line"/>
      <point x="168" y="1104" type="line"/>
      <point x="901" y="956" type="line"/>
      <point x="748" y="1509" type="line"/>
      <point x="901" y="2064" type="line"/>
      <point x="168" y="1917" type="line"/>
      <point x="168" y="2398" type="line"/>
      <point x="901" y="2249" type="line"/>
      <point x="737" y="3021" type="line"/>
      <point x="1401" y="3021" type="line"/>
      <point x="1237" y="2249" type="line"/>
      <point x="1976" y="2398" type="line"/>
      <point x="1976" y="1917" type="line"/>
      <point x="1237" y="2064" type="line"/>
      <point x="1389" y="1509" type="line"/>
    </contour>
  </outline>
</glyph>
<glyph name="guilsinglleft" format="1">
  <advance width="1212.153856"/>
  <unicode hex="2039"/>
  <outline>
    <contour>
      <point x="1090" y="1937" type="line"/>
      <point x="713" y="1116" type="line"/>
      <point x="1090" y="293" type="line"/>
      <point x="752" y="293" type="line"/>
      <point x="72" y="1116" type="line"/>
      <point x="752" y="1937" type="line"/>
    </contour>
  </outline>
</glyph>
<glyph name="guilsinglright" format="1">
  <advance width="1212.153856"/>
  <unicode hex="203A"/>
  <outline>
    <contour>
      <point x="121" y="1937" type="line"/>
      <point x="461" y="1937" type="line"/>
      <point x="1141" y="1116" type="line"/>
      <point x="461" y="293" type="line"/>
      <point x="121" y="293" type="line"/>
      <point x="496" y="1116" type="line"/>
    </contour>
  </outline>
</glyph>
<glyph name="fraction" format="1">
  <advance width="1677.7216"/>
  <unicode hex="2044"/>
  <outline>
    <contour>
      <point x="-248" y="-63" type="line"/>
      <point x="1346" y="3082" type="line"/>
      <point x="1925" y="3082" type="line"/>
      <point x="332" y="-63" type="line"/>
    </contour>
  </outline>
</glyph>
<glyph name="uni2117" format="1">
  <advance width="3473"/>
  <unicode hex="2117"/>
  <outline>
    <contour>
      <point x="176" y="1505" type="qcurve" smooth="yes"/>
      <point x="176" y="2172"/>
      <point x="1074" y="3070"/>
      <point x="1741" y="3070" type="qcurve" smooth="yes"/>
      <point x="2404" y="3070"/>
      <point x="3297" y="2178"/>
      <point x="3297" y="1513" type="qcurve" smooth="yes"/>
      <point x="3297" y="847"/>
      <point x="2399" y="-51"/>
      <point x="1733" y="-51" type="qcurve" smooth="yes"/>
      <point x="1069" y="-51"/>
      <point x="176" y="842"/>
    </contour>
    <contour>
      <point x="360" y="1513" type="qcurve" smooth="yes"/>
      <point x="360" y="910"/>
      <point x="1137" y="109"/>
      <point x="1741" y="109" type="qcurve" smooth="yes"/>
      <point x="2341" y="109"/>
      <point x="3113" y="905"/>
      <point x="3113" y="1505" type="qcurve" smooth="yes"/>
      <point x="3113" y="2109"/>
      <point x="2336" y="2910"/>
      <point x="1733" y="2910" type="qcurve" smooth="yes"/>
      <point x="1132" y="2910"/>
      <point x="360" y="2116"/>
    </contour>
    <contour>
      <point x="1200" y="2404" type="line"/>
      <point x="1829" y="2404" type="line" smooth="yes"/>
      <point x="2125" y="2404"/>
      <point x="2482" y="2135"/>
      <point x="2482" y="1866" type="qcurve" smooth="yes"/>
      <point x="2482" y="1588"/>
      <point x="2128" y="1300"/>
      <point x="1808" y="1300" type="qcurve" smooth="yes"/>
      <point x="1624" y="1300" type="line"/>
      <point x="1624" y="637" type="line"/>
      <point x="1200" y="637" type="line"/>
    </contour>
    <contour>
      <point x="1610" y="1610" type="line"/>
      <point x="1786" y="1610" type="line" smooth="yes"/>
      <point x="1922" y="1610"/>
      <point x="2060" y="1739"/>
      <point x="2060" y="1862" type="qcurve" smooth="yes"/>
      <point x="2060" y="1978"/>
      <point x="1917" y="2101"/>
      <point x="1786" y="2101" type="qcurve" smooth="yes"/>
      <point x="1610" y="2101" type="line"/>
    </contour>
  </outline>
</glyph>
<glyph name="apple" format="1">
  <advance width="2097.152"/>
  <unicode hex="F8FF"/>
  <outline>
    <contour>
      <point x="1880" y="1493" type="line"/>
      <point x="1233" y="920" type="line"/>
      <point x="1985" y="868" type="line"/>
      <point x="1796" y="307" type="line"/>
      <point x="1157" y="713" type="line"/>
      <point x="1350" y="0" type="line"/>
      <point x="748" y="0" type="line"/>
      <point x="940" y="713" type="line"/>
      <point x="301" y="307" type="line"/>
      <point x="113" y="868" type="line"/>
      <point x="864" y="920" type="line"/>
      <point x="217" y="1493" type="line"/>
      <point x="217" y="1526" type="line"/>
      <point x="864" y="2101" type="line"/>
      <point x="113" y="2152" type="line"/>
      <point x="301" y="2714" type="line"/>
      <point x="940" y="2306" type="line"/>
      <point x="748" y="3021" type="line"/>
      <point x="1350" y="3021" type="line"/>
      <point x="1157" y="2306" type="line"/>
      <point x="1796" y="2714" type="line"/>
      <point x="1985" y="2152" type="line"/>
      <point x="1233" y="2101" type="line"/>
      <point x="1880" y="1526" type="line"/>
    </contour>
    <contour>
      <point x="748" y="1509" type="line"/>
      <point x="1049" y="977" type="line"/>
      <point x="1350" y="1509" type="line"/>
      <point x="1049" y="2042" type="line"/>
    </contour>
  </outline>
</glyph>
<glyph name="f_f_i" format="1">
  <advance width="4140"/>
  <unicode hex="FB03"/>
  <outline>
    <contour>
      <point x="2613" y="3183" type="qcurve" smooth="yes"/>
      <point x="2760" y="3183"/>
      <point x="2967" y="3158"/>
      <point x="3058" y="3133" type="qcurve"/>
      <point x="3058" y="2714" type="line"/>
      <point x="2998" y="2735"/>
      <point x="2862" y="2757"/>
      <point x="2769" y="2757" type="qcurve" smooth="yes"/>
      <point x="2628" y="2757"/>
      <point x="2486" y="2621"/>
      <point x="2486" y="2470" type="qcurve" smooth="yes"/>
      <point x="2486" y="2218" type="line"/>
      <point x="3017" y="2218" type="line"/>
      <point x="3017" y="1796" type="line"/>
      <point x="2486" y="1796" type="line"/>
      <point x="2486" y="0" type="line"/>
      <point x="1862" y="0" type="line"/>
      <point x="1862" y="1796" type="line"/>
      <point x="1073" y="1796" type="line"/>
      <point x="1073" y="0" type="line"/>
      <point x="449" y="0" type="line"/>
      <point x="449" y="1796" type="line"/>
      <point x="51" y="1796" type="line"/>
      <point x="51" y="2218" type="line"/>
      <point x="449" y="2218" type="line"/>
      <point x="449" y="2454" type="line" smooth="yes"/>
      <point x="449" y="2814"/>
      <point x="839" y="3183"/>
      <point x="1200" y="3183" type="qcurve" smooth="yes"/>
      <point x="1347" y="3183"/>
      <point x="1553" y="3158"/>
      <point x="1645" y="3133" type="qcurve"/>
      <point x="1645" y="2714" type="line"/>
      <point x="1585" y="2735"/>
      <point x="1449" y="2757"/>
      <point x="1356" y="2757" type="qcurve" smooth="yes"/>
      <point x="1214" y="2757"/>
      <point x="1073" y="2621"/>
      <point x="1073" y="2470" type="qcurve" smooth="yes"/>
      <point x="1073" y="2218" type="line"/>
      <point x="1862" y="2218" type="line"/>
      <point x="1862" y="2454" type="line" smooth="yes"/>
      <point x="1862" y="2814"/>
      <point x="2253" y="3183"/>
    </contour>
    <contour>
      <point x="3275" y="2232" type="line"/>
      <point x="3906" y="2232" type="line"/>
      <point x="3906" y="0" type="line"/>
      <point x="3275" y="0" type="line"/>
    </contour>
    <contour>
      <point x="3250" y="3049" type="line"/>
      <point x="3930" y="3049" type="line"/>
      <point x="3930" y="2558" type="line"/>
      <point x="3250" y="2558" type="line"/>
    </contour>
  </outline>
</glyph>
<glyph name="I.salt" format="1">
  <advance width="1199.570944"/>
  <outline>
    <contour>
      <point x="264" y="3021" type="line"/>
      <point x="936" y="3021" type="line"/>
      <point x="936" y="0" type="line"/>
      <point x="264" y="0" type="line"/>
    </contour>
  </outline>
</glyph>
<glyph name="registered" format="1">
  <advance width="2147"/>
  <outline>
    <contour>
      <point x="1493" y="2345" type="qcurve" smooth="yes"/>
      <point x="1493" y="2235"/>
      <point x="1384" y="2085"/>
      <point x="1288" y="2050" type="qcurve"/>
      <point x="1548" y="1593" type="line"/>
      <point x="1266" y="1593" type="line"/>
      <point x="1032" y="2013" type="line"/>
      <point x="969" y="2013" type="line"/>
      <point x="969" y="1593" type="line"/>
      <point x="705" y="1593" type="line"/>
      <point x="705" y="2669" type="line"/>
      <point x="1104" y="2669" type="line" smooth="yes"/>
      <point x="1281" y="2669"/>
      <point x="1493" y="2507"/>
    </contour>
    <contour>
      <point x="139" y="2109" type="qcurve" smooth="yes"/>
      <point x="139" y="2510"/>
      <point x="677" y="3049"/>
      <point x="1077" y="3049" type="qcurve" smooth="yes"/>
      <point x="1475" y="3049"/>
      <point x="2009" y="2514"/>
      <point x="2009" y="2114" type="qcurve" smooth="yes"/>
      <point x="2009" y="1716"/>
      <point x="1469" y="1174"/>
      <point x="1069" y="1174" type="qcurve" smooth="yes"/>
      <point x="672" y="1174"/>
      <point x="139" y="1709"/>
    </contour>
    <contour>
      <point x="256" y="2114" type="qcurve" smooth="yes"/>
      <point x="256" y="1757"/>
      <point x="718" y="1280"/>
      <point x="1077" y="1280" type="qcurve" smooth="yes"/>
      <point x="1435" y="1280"/>
      <point x="1892" y="1753"/>
      <point x="1892" y="2109" type="qcurve" smooth="yes"/>
      <point x="1892" y="2470"/>
      <point x="1430" y="2949"/>
      <point x="1069" y="2949" type="qcurve" smooth="yes"/>
      <point x="713" y="2949"/>
      <point x="256" y="2471"/>
    </contour>
    <contour>
      <point x="952" y="2189" type="line"/>
      <point x="1073" y="2189" type="line" smooth="yes"/>
      <point x="1151" y="2189"/>
      <point x="1237" y="2266"/>
      <point x="1237" y="2341" type="qcurve" smooth="yes"/>
      <point x="1237" y="2413"/>
      <point x="1151" y="2482"/>
      <point x="1073" y="2482" type="qcurve" smooth="yes"/>
      <point x="952" y="2482" type="line"/>
    </contour>
  </outline>
</glyph>
